<svg width="34" height="34" viewBox="0 0 34 34" fill="none" xmlns="http://www.w3.org/2000/svg">
<g id="_Twitter">
<rect x="0.189453" width="33.3474" height="33.3474" rx="16.6737" fill="#121212"/>
<path id="Vector" d="M13.8117 25.4702C21.2065 25.4702 25.2499 19.3427 25.2499 14.0321C25.2499 13.857 25.2499 13.682 25.2415 13.5152C26.0252 12.9483 26.7088 12.2397 27.2507 11.431C26.5338 11.7478 25.7584 11.9646 24.9414 12.0646C25.7751 11.5644 26.4087 10.7807 26.7088 9.83866C25.9335 10.2972 25.0748 10.6307 24.1578 10.8141C23.4241 10.0304 22.382 9.54688 21.2232 9.54688C19.0056 9.54688 17.2048 11.3476 17.2048 13.5652C17.2048 13.882 17.2382 14.1905 17.3132 14.4823C13.9701 14.3155 11.0106 12.7149 9.02639 10.2805C8.68458 10.8724 8.48449 11.5644 8.48449 12.298C8.48449 13.6903 9.19312 14.9241 10.2769 15.6411C9.6183 15.6244 9.00138 15.441 8.45948 15.1409C8.45948 15.1576 8.45948 15.1742 8.45948 15.1909C8.45948 17.1417 9.8434 18.7591 11.6858 19.1342C11.3524 19.226 10.9939 19.276 10.6271 19.276C10.3686 19.276 10.1185 19.251 9.86841 19.2009C10.377 20.8016 11.8609 21.9604 13.62 21.9938C12.2444 23.0692 10.5103 23.7112 8.62622 23.7112C8.30108 23.7112 7.98428 23.6945 7.66748 23.6528C9.42655 24.8033 11.5441 25.4702 13.8117 25.4702Z" fill="#F2F2F2"/>
</g>
</svg>
