<svg width="36" height="36" viewBox="0 0 36 36" fill="none" xmlns="http://www.w3.org/2000/svg">
<rect x="0.568359" width="35.4316" height="35.4316" rx="17.7158" fill="#121212"/>
<g clip-path="url(#clip0_1557_10570)">
<path d="M7.94995 10.1419C7.94995 9.47691 8.18271 8.92828 8.64821 8.49604C9.11371 8.06378 9.71888 7.84766 10.4637 7.84766C11.1952 7.84766 11.787 8.06045 12.2392 8.48606C12.7047 8.92497 12.9375 9.49686 12.9375 10.2018C12.9375 10.8402 12.7114 11.3722 12.2592 11.7978C11.7937 12.2367 11.1819 12.4562 10.4238 12.4562H10.4038C9.67231 12.4562 9.08047 12.2367 8.62826 11.7978C8.17605 11.3589 7.94995 10.8069 7.94995 10.1419ZM8.2093 27.5984V14.2716H12.6383V27.5984H8.2093ZM15.0921 27.5984H19.5211V20.1569C19.5211 19.6914 19.5743 19.3323 19.6807 19.0796C19.8669 18.6274 20.1495 18.245 20.5286 17.9325C20.9076 17.6199 21.3831 17.4637 21.955 17.4637C23.4446 17.4637 24.1894 18.4678 24.1894 20.4761V27.5984H28.6184V19.9574C28.6184 17.989 28.1529 16.4961 27.2219 15.4786C26.2908 14.4612 25.0606 13.9524 23.5311 13.9524C21.8154 13.9524 20.4787 14.6906 19.5211 16.1669V16.2068H19.5011L19.5211 16.1669V14.2716H15.0921C15.1187 14.6972 15.132 16.0206 15.132 18.2417C15.132 20.4628 15.1187 23.5817 15.0921 27.5984Z" fill="#F2F2F2"/>
</g>
<defs>
<clipPath id="clip0_1557_10570">
<rect x="7.94995" y="7.38281" width="20.6684" height="20.6684" fill="white"/>
</clipPath>
</defs>
</svg>
