<svg width="28" height="22" viewBox="0 0 28 22" fill="none" xmlns="http://www.w3.org/2000/svg">
<path d="M0.980007 10.9999C0.980007 10.5544 1.15706 10.1271 1.47207 9.81198C1.78721 9.49698 2.21446 9.31992 2.66001 9.31992H21.0854L14.2562 2.95272C13.9121 2.65357 13.7044 2.22717 13.6809 1.77175C13.6574 1.31633 13.8201 0.870916 14.1315 0.537716C14.4429 0.20467 14.8763 0.0124364 15.3324 0.00533142C15.7884 -0.00177813 16.2277 0.176776 16.5494 0.499987L26.4992 9.76939C26.8397 10.0871 27.0332 10.532 27.0332 10.998C27.0332 11.4638 26.8397 11.9087 26.4992 12.2264L16.5494 21.5C16.1105 21.9096 15.4864 22.054 14.9122 21.8787C14.338 21.7034 13.9009 21.2351 13.7655 20.6503C13.6303 20.0652 13.8173 19.4526 14.2562 19.043L21.0854 12.68H2.66001C2.21446 12.68 1.78718 12.5029 1.47207 12.1879C1.15707 11.8728 0.980007 11.4455 0.980007 11V10.9999Z" fill="#121212"/>
</svg>
