<svg width="34" height="25" viewBox="0 0 34 25" fill="none" xmlns="http://www.w3.org/2000/svg">
<path d="M21.0327 24.2555H32.0802C32.6038 24.2555 33.0298 23.8295 33.0298 23.3059V12.1184C33.0298 11.5947 32.6038 11.1688 32.0802 11.1688H25.5107C25.8107 8.40741 28.1564 6.25081 30.9962 6.25081C31.3276 6.25081 31.5962 5.98226 31.5962 5.65081V1.45571C31.5962 1.12426 31.3276 0.855709 30.9962 0.855709C28.0811 0.855709 25.3407 1.99086 23.2792 4.05201C21.2178 6.11336 20.0829 8.85376 20.0829 11.769L20.0827 23.306C20.0827 23.8297 20.5087 24.2556 21.0323 24.2556L21.0327 24.2555Z" fill="#00A3DA"/>
<path d="M1.92038 24.2555H12.9679C13.4915 24.2555 13.9175 23.8295 13.9175 23.3059V12.1184C13.9175 11.5947 13.4915 11.1688 12.9679 11.1688H6.39838C6.69838 8.40741 9.04408 6.25081 11.8839 6.25081C12.2153 6.25081 12.4839 5.98226 12.4839 5.65081V1.45571C12.4839 1.12426 12.2153 0.855709 11.8839 0.855709C8.96883 0.855709 6.22838 1.99086 4.16688 4.05201C2.10553 6.11336 0.970381 8.85376 0.970381 11.769V23.306C0.970381 23.8297 1.39636 24.2556 1.91998 24.2556L1.92038 24.2555Z" fill="#00A3DA"/>
</svg>
