<svg width="34" height="34" viewBox="0 0 34 34" fill="none" xmlns="http://www.w3.org/2000/svg">
<g id="_Instagram">
<path id="Vector" d="M8.83493 33.2294C6.85175 33.1392 5.77443 32.8092 5.05787 32.5297C4.1084 32.16 3.43148 31.72 2.71888 31.0084C2.00628 30.2968 1.56525 29.6199 1.19755 28.6704C0.918062 27.9538 0.588027 26.8765 0.497838 24.8933C0.398728 22.7496 0.378906 22.1064 0.378906 16.6752C0.378906 11.244 0.40071 10.6017 0.496847 8.45602C0.587036 6.47284 0.919053 5.3975 1.19656 4.67896C1.56624 3.72949 2.00728 3.05257 2.71789 2.33898C3.4295 1.62738 4.10641 1.18535 5.05687 0.817653C5.77344 0.538165 6.85076 0.20813 8.83394 0.11794C10.9787 0.0198219 11.6229 0 17.0521 0C22.4833 0 23.1255 0.0218041 25.2712 0.11794C27.2544 0.20813 28.3298 0.540147 29.0483 0.817653C29.9978 1.18535 30.6747 1.62738 31.3873 2.33898C32.0999 3.05059 32.5389 3.7285 32.9086 4.67797C33.1881 5.39453 33.5182 6.47185 33.6083 8.45503C33.7065 10.6008 33.7263 11.243 33.7263 16.6742C33.7263 22.1034 33.7065 22.7476 33.6083 24.8933C33.5182 26.8765 33.1861 27.9538 32.9086 28.6704C32.5389 29.6199 32.0989 30.2968 31.3873 31.0084C30.6757 31.72 29.9978 32.16 29.0483 32.5297C28.3317 32.8092 27.2544 33.1392 25.2712 33.2294C23.1275 33.3276 22.4833 33.3474 17.0521 33.3474C11.6229 33.3474 10.9787 33.3285 8.83493 33.2294Z" fill="#121212"/>
<path id="Vector_2" d="M13.2691 16.5563C13.2691 14.5317 14.9099 12.8901 16.9345 12.8901C18.959 12.8901 20.6006 14.5317 20.6006 16.5563C20.6006 18.5808 18.959 20.2225 16.9345 20.2225C14.9099 20.2225 13.2691 18.5808 13.2691 16.5563ZM11.2873 16.5563C11.2873 19.6752 13.8155 22.2035 16.9345 22.2035C20.0534 22.2035 22.5816 19.6752 22.5816 16.5563C22.5816 13.4373 20.0534 10.9091 16.9345 10.9091C13.8155 10.9091 11.2874 13.4372 11.2874 16.5563M21.4856 10.6852C21.4855 10.9462 21.5628 11.2014 21.7077 11.4185C21.8526 11.6356 22.0587 11.8048 22.2998 11.9048C22.5409 12.0048 22.8062 12.031 23.0622 11.9802C23.3183 11.9294 23.5535 11.8038 23.7381 11.6193C23.9227 11.4348 24.0485 11.1997 24.0995 10.9437C24.1506 10.6877 24.1245 10.4224 24.0247 10.1812C23.925 9.93998 23.7559 9.7338 23.5389 9.5887C23.3219 9.4436 23.0668 9.3661 22.8058 9.36599H22.8053C22.4554 9.36616 22.1199 9.50518 21.8725 9.75252C21.625 9.99987 21.4859 10.3353 21.4856 10.6852ZM12.4914 25.5082C11.4192 25.4594 10.8364 25.2808 10.4491 25.1299C9.93561 24.93 9.56926 24.6919 9.18408 24.3073C8.79889 23.9226 8.56046 23.5566 8.36145 23.0432C8.21047 22.656 8.03187 22.0731 7.98313 21.0008C7.92981 19.8416 7.91917 19.4934 7.91917 16.5565C7.91917 13.6195 7.93069 13.2723 7.98313 12.1121C8.03196 11.0398 8.21188 10.458 8.36145 10.0698C8.56134 9.5563 8.79942 9.18994 9.18408 8.80476C9.56873 8.41958 9.93473 8.18115 10.4491 7.98213C10.8362 7.83116 11.4192 7.65255 12.4914 7.60381C13.6506 7.55049 13.9989 7.53985 16.9345 7.53985C19.87 7.53985 20.2186 7.5512 21.3788 7.60399C22.4511 7.65282 23.0329 7.83274 23.4212 7.98231C23.9346 8.18132 24.301 8.42028 24.6861 8.80493C25.0713 9.18959 25.3089 9.55647 25.5088 10.0699C25.6598 10.4571 25.8384 11.04 25.8871 12.1122C25.9404 13.2725 25.9511 13.6197 25.9511 16.5566C25.9511 19.4935 25.9404 19.8408 25.8871 21.001C25.8383 22.0732 25.6588 22.656 25.5088 23.0433C25.3089 23.5568 25.0708 23.9231 24.6861 24.3074C24.3015 24.6917 23.9346 24.9302 23.4212 25.1301C23.034 25.281 22.4511 25.4597 21.3788 25.5084C20.2196 25.5617 19.8714 25.5724 16.9345 25.5724C13.9975 25.5724 13.6503 25.5617 12.4914 25.5084M12.4003 5.6252C11.2296 5.67851 10.4295 5.86415 9.73088 6.13602C9.00776 6.41677 8.39479 6.79341 7.78271 7.40453C7.17062 8.01565 6.79494 8.62871 6.51419 9.35271C6.24233 10.0518 6.05669 10.8514 6.00337 12.0222C5.94917 13.1948 5.93677 13.5697 5.93677 16.5563C5.93677 19.5429 5.94917 19.9178 6.00337 21.0904C6.05669 22.2613 6.24233 23.0607 6.51419 23.7598C6.79494 24.483 7.17071 25.0972 7.78271 25.708C8.39471 26.3189 9.00688 26.695 9.73088 26.9765C10.4309 27.2484 11.2296 27.434 12.4003 27.4874C13.5736 27.5407 13.9478 27.554 16.9345 27.554C19.9211 27.554 20.296 27.5416 21.4686 27.4874C22.6394 27.434 23.4389 27.2484 24.138 26.9765C24.8611 26.695 25.4741 26.3191 26.0862 25.708C26.6983 25.0969 27.0732 24.483 27.3547 23.7598C27.6266 23.0607 27.8131 22.2612 27.8655 21.0904C27.9189 19.9169 27.9313 19.5429 27.9313 16.5563C27.9313 13.5697 27.9189 13.1948 27.8655 12.0222C27.8122 10.8513 27.6266 10.0514 27.3547 9.35271C27.0732 8.62959 26.6973 8.01662 26.0862 7.40453C25.4751 6.79245 24.8611 6.41677 24.1389 6.13602C23.4389 5.86415 22.6393 5.67763 21.4695 5.6252C20.2967 5.57162 19.922 5.55859 16.9358 5.55859C13.9496 5.55859 13.574 5.571 12.4008 5.6252" fill="#F2F2F2"/>
</g>
</svg>
