<svg width="20" height="20" viewBox="0 0 20 20" fill="none" xmlns="http://www.w3.org/2000/svg">
<path d="M7.29232 0C3.2648 0 0 3.26872 0 7.30107C0 11.3334 3.2648 14.6021 7.29232 14.6021C11.3198 14.6021 14.5847 11.3334 14.5847 7.30107C14.5847 3.26872 11.3198 0 7.29232 0ZM7.29232 13.2099C4.03682 13.2099 1.39056 10.5605 1.39056 7.30107C1.39056 4.04166 4.03682 1.39223 7.29232 1.39223C10.5478 1.39223 13.1941 4.04166 13.1941 7.30107C13.1941 10.5605 10.5478 13.2099 7.29232 13.2099Z" fill="#121212"/>
<path d="M11.1104 13.211L17.0726 19.1804C17.6167 19.7252 18.4957 19.7252 19.0352 19.1804L19.1561 19.0593C19.7002 18.5145 19.7002 17.6345 19.1561 17.0944L13.1939 11.125" fill="#121212"/>
</svg>
