<svg width="307" height="95" viewBox="0 0 307 95" fill="none" xmlns="http://www.w3.org/2000/svg">
<path d="M161.183 50.9439C161.183 53.0795 161.183 61.5516 161.391 63.4028C161.252 63.8298 160.836 64.1855 160.072 64.1855C159.24 62.9759 157.228 60.4838 151.19 53.4352L135.089 34.6399C133.215 32.4322 128.496 26.5948 127.039 25.0279H126.9C126.623 25.8826 126.553 27.52 126.553 29.6557V45.177C126.553 48.5231 126.623 57.7786 127.803 59.9142C128.219 60.6969 129.607 61.1246 131.341 61.2672L133.493 61.4803C133.91 62.0499 133.84 62.9046 133.354 63.2603C130.232 63.1177 127.803 63.0464 125.235 63.0464C122.32 63.0464 120.446 63.1177 118.017 63.2603C117.532 62.9046 117.462 61.908 117.878 61.4803L119.752 61.2672C121.348 61.0533 122.459 60.6263 122.806 59.8429C123.778 57.2796 123.708 48.5944 123.708 45.177V24.601C123.708 22.6071 123.639 21.1131 122.181 19.4749C121.21 18.4777 119.544 17.9794 117.878 17.7663L116.699 17.6237C116.282 17.1967 116.282 16.1282 116.837 15.8438C119.752 16.0576 123.43 16.0576 124.679 16.0576C125.79 16.0576 126.97 15.9863 127.872 15.8438C129.26 19.4749 137.448 28.8723 139.739 31.5069L146.47 39.2676C151.259 44.7493 154.66 48.7369 157.921 52.1536H158.06C158.338 51.7979 158.338 50.6587 158.338 49.1632V33.9277C158.338 30.5817 158.269 21.3262 156.95 19.1898C156.533 18.549 155.422 18.122 152.647 17.7663L151.467 17.6237C150.981 17.1967 151.051 16.0576 151.606 15.8438C154.798 15.9863 157.157 16.0576 159.795 16.0576C162.779 16.0576 164.583 15.9863 166.944 15.8438C167.498 16.1995 167.498 17.1967 167.082 17.6237L166.11 17.7663C163.89 18.122 162.501 18.6915 162.224 19.2611C161.044 21.8245 161.183 30.653 161.183 33.9277V50.9439Z" fill="white"/>
<path d="M181.102 20.9739C186.168 16.9157 192.622 14.9219 199.84 14.9219C203.587 14.9219 208.861 15.7053 212.123 16.6305C212.956 16.8437 213.441 16.9862 214.066 16.9157C214.135 18.5523 214.483 23.0382 215.037 27.3808C214.691 27.8791 213.65 27.9504 213.164 27.5234C212.123 22.6818 209 17.1288 198.937 17.1288C188.319 17.1288 179.298 24.0348 179.298 38.772C179.298 53.7238 188.527 61.9827 199.909 61.9827C208.861 61.9827 212.817 56.002 214.413 51.8012C214.899 51.4455 215.94 51.5881 216.218 52.0856C215.731 55.7881 213.928 60.4871 212.887 61.8394C212.054 61.9827 211.221 62.2671 210.457 62.5515C208.931 63.1211 203.935 64.1889 199.492 64.1889C193.247 64.1889 187.279 62.9079 182.213 59.4193C176.661 55.5037 172.358 49.0247 172.358 39.8405C172.358 31.9373 175.827 25.1739 181.102 20.9739Z" fill="white"/>
<path d="M232.181 52.3674C232.181 59.8429 232.319 60.7689 236.761 61.2672L238.635 61.4803C239.052 61.836 238.913 63.0464 238.496 63.2603C234.541 63.1177 232.25 63.0464 229.475 63.0464C226.56 63.0464 224.061 63.1177 221.008 63.2603C220.592 63.0464 220.453 61.908 220.87 61.4803L222.326 61.2672C226.351 60.6969 226.49 59.8429 226.49 52.3674V26.0965C226.49 20.0445 226.351 18.8341 223.229 18.4777L220.73 18.1933C220.245 17.7663 220.314 16.6984 220.87 16.4133C224.548 15.915 228.851 15.8438 234.61 15.8438C240.37 15.8438 244.673 16.6272 247.935 18.6915C251.127 20.7559 253.487 24.4584 253.487 29.3705C253.487 35.9208 249.531 39.1963 246.547 40.6911C243.493 42.1867 239.815 42.8275 236.969 42.8275C236.483 42.6137 236.483 41.5458 236.9 41.4033C244.395 39.979 247.102 35.6364 247.102 29.4426C247.102 22.5366 243.146 18.0507 235.928 18.0507C232.25 18.0507 232.181 18.3358 232.181 20.6141V52.3674Z" fill="white"/>
<path d="M300.678 55.7881C300.678 58.6359 301.095 60.3446 302.345 60.8428C302.553 61.0567 302.553 61.4837 302.274 61.6968C301.442 61.6968 300.193 61.9827 298.875 62.3384C295.197 63.3349 290.2 64.1889 286.452 64.1889C278.194 64.1889 270.629 61.8394 265.286 56.2864C261.122 52.0144 258.901 46.3908 258.901 40.1249C258.901 34.0729 260.845 27.9504 265.147 23.2521C269.797 18.2679 276.668 14.9219 287.146 14.9219C291.101 14.9219 294.781 15.7053 295.96 15.9897C297.278 16.2741 299.431 16.7731 300.262 16.6305C300.262 18.9801 300.678 22.6818 301.303 26.9539C301.095 27.5234 299.846 27.5947 299.431 27.167C297.486 19.4783 292.282 17.0575 285.203 17.0575C271.741 17.0575 265.841 26.8826 265.841 37.5623C265.841 51.2317 272.712 61.9827 286.661 61.9827C290.963 61.9827 293.531 61.0567 294.294 59.8463C294.642 59.348 294.988 58.0663 294.988 55.7881V52.9403C294.988 46.9596 294.781 46.5326 290.478 46.0344L287.424 45.6787C286.869 45.3935 286.938 44.1118 287.424 43.8987C289.437 44.0413 293.253 44.1118 297.347 44.1118C300.054 44.1118 302.414 44.0413 304.704 43.8987C305.19 44.1831 305.259 45.251 304.774 45.6787L303.663 45.8205C300.749 46.1769 300.678 48.17 300.678 51.8012V55.7881Z" fill="white"/>
<path d="M121.115 78.9453H122.23V87.3577H121.22L115.738 80.8788V87.3577H114.635V78.9453H115.585L121.115 85.4796V78.9453Z" fill="white"/>
<path d="M126.181 86.263V84.6191L125.466 84.9021C125.101 85.0504 124.844 85.2003 124.694 85.3516C124.543 85.5014 124.467 85.6891 124.467 85.9139C124.467 86.143 124.538 86.3292 124.682 86.474C124.825 86.6187 125.009 86.6907 125.236 86.6907C125.577 86.6907 125.892 86.5482 126.181 86.263ZM127.232 84.0292V86.3838C127.232 86.5729 127.294 86.6667 127.42 86.6667C127.55 86.6667 127.75 86.5685 128.025 86.3714V87.0406C127.781 87.2006 127.587 87.3098 127.44 87.3687C127.294 87.4269 127.14 87.456 126.98 87.456C126.521 87.456 126.252 87.2712 126.17 86.9017C125.716 87.2625 125.232 87.4436 124.72 87.4436C124.344 87.4436 124.031 87.3163 123.78 87.061C123.53 86.8064 123.405 86.4863 123.405 86.1008C123.405 85.7509 123.527 85.4396 123.772 85.1639C124.016 84.8897 124.363 84.6715 124.813 84.5107L126.181 84.0292V83.7338C126.181 83.0675 125.856 82.7344 125.207 82.7344C124.624 82.7344 124.056 83.0435 123.505 83.6618V82.4631C123.919 81.9612 124.516 81.7109 125.295 81.7109C125.878 81.7109 126.346 81.8673 126.698 82.1801C126.815 82.2805 126.921 82.4143 127.015 82.5809C127.109 82.7475 127.168 82.9141 127.194 83.0806C127.219 83.2472 127.232 83.5636 127.232 84.0292Z" fill="white"/>
<path d="M128.211 82.6994L130.218 80.6758V81.82H131.926V82.8078H130.218V85.5188C130.218 86.1524 130.474 86.4688 130.988 86.4688C131.37 86.4688 131.775 86.3386 132.202 86.0775V87.1009C131.791 87.3381 131.343 87.4566 130.858 87.4566C130.369 87.4566 129.962 87.3097 129.637 87.0166C129.535 86.9285 129.451 86.8289 129.384 86.7183C129.318 86.6085 129.262 86.4637 129.217 86.2855C129.172 86.1066 129.15 85.7662 129.15 85.2642V82.8078H128.211V82.6994Z" fill="white"/>
<path d="M132.995 87.3627H134.064V81.8228H132.995V87.3627ZM133.523 79.4922C133.699 79.4922 133.85 79.554 133.975 79.6784C134.101 79.8035 134.163 79.9555 134.163 80.1367C134.163 80.3127 134.101 80.4655 133.975 80.5942C133.85 80.7222 133.699 80.787 133.523 80.787C133.359 80.787 133.214 80.7215 133.089 80.5913C132.964 80.4611 132.901 80.3091 132.901 80.1367C132.901 79.9679 132.964 79.8188 133.089 79.6879C133.214 79.5569 133.359 79.4922 133.523 79.4922Z" fill="white"/>
<path d="M138.131 82.7925C137.617 82.7925 137.197 82.9649 136.869 83.3104C136.54 83.6559 136.375 84.0953 136.375 84.6292C136.375 85.1587 136.543 85.5915 136.88 85.9269C137.217 86.2615 137.649 86.4295 138.178 86.4295C138.702 86.4295 139.131 86.26 139.466 85.9211C139.801 85.5814 139.968 85.1471 139.968 84.6168C139.968 84.0916 139.794 83.6559 139.445 83.3104C139.097 82.9649 138.658 82.7925 138.131 82.7925ZM138.189 81.8047C139.011 81.8047 139.694 82.0767 140.238 82.6208C140.782 83.1649 141.053 83.8487 141.053 84.6714C141.053 85.4708 140.778 86.1335 140.226 86.6616C139.674 87.1897 138.98 87.4537 138.142 87.4537C137.332 87.4537 136.655 87.1853 136.112 86.6499C135.568 86.1138 135.295 85.4439 135.295 84.6408C135.295 83.8305 135.571 83.1548 136.12 82.615C136.67 82.0753 137.359 81.8047 138.189 81.8047Z" fill="white"/>
<path d="M143.308 81.8193V82.5234C143.785 81.9815 144.328 81.7109 144.935 81.7109C145.271 81.7109 145.584 81.8004 145.874 81.9786C146.163 82.1576 146.383 82.402 146.534 82.7133C146.684 83.0246 146.76 83.5171 146.76 84.1921V87.3592H145.691V84.2038C145.691 83.6378 145.607 83.2334 145.439 82.9904C145.271 82.7475 144.989 82.626 144.594 82.626C144.089 82.626 143.661 82.885 143.308 83.4029V87.3592H142.216V81.8193H143.308Z" fill="white"/>
<path d="M150.594 86.263V84.6191L149.878 84.9021C149.514 85.0504 149.257 85.2003 149.106 85.3516C148.955 85.5014 148.88 85.6891 148.88 85.9139C148.88 86.143 148.951 86.3292 149.094 86.474C149.237 86.6187 149.422 86.6907 149.649 86.6907C149.989 86.6907 150.304 86.5482 150.594 86.263ZM151.645 84.0292V86.3838C151.645 86.5729 151.707 86.6667 151.833 86.6667C151.962 86.6667 152.163 86.5685 152.437 86.3714V87.0406C152.194 87.2006 152 87.3098 151.853 87.3687C151.706 87.4269 151.553 87.456 151.392 87.456C150.934 87.456 150.665 87.2712 150.582 86.9017C150.128 87.2625 149.645 87.4436 149.133 87.4436C148.757 87.4436 148.443 87.3163 148.193 87.061C147.943 86.8064 147.817 86.4863 147.817 86.1008C147.817 85.7509 147.94 85.4396 148.185 85.1639C148.429 84.8897 148.776 84.6715 149.226 84.5107L150.594 84.0292V83.7338C150.594 83.0675 150.269 82.7344 149.619 82.7344C149.036 82.7344 148.469 83.0435 147.917 83.6618V82.4631C148.332 81.9612 148.928 81.7109 149.708 81.7109C150.29 81.7109 150.758 81.8673 151.11 82.1801C151.228 82.2805 151.333 82.4143 151.427 82.5809C151.521 82.7475 151.581 82.9141 151.606 83.0806C151.632 83.2472 151.645 83.5636 151.645 84.0292Z" fill="white"/>
<path d="M153.404 87.3577H154.473V78.9453H153.404V87.3577Z" fill="white"/>
<path d="M166.571 85.4058V86.7304C165.71 87.2127 164.716 87.4535 163.59 87.4535C162.674 87.4535 161.896 87.2644 161.258 86.8868C160.621 86.51 160.116 85.9899 159.745 85.3273C159.372 84.6653 159.187 83.9481 159.187 83.1778C159.187 81.9529 159.612 80.9236 160.463 80.0885C161.314 79.2535 162.364 78.8359 163.612 78.8359C164.474 78.8359 165.43 79.0665 166.483 79.5284V80.8232C165.525 80.2609 164.587 79.9801 163.671 79.9801C162.732 79.9801 161.952 80.2842 161.332 80.8923C160.712 81.5004 160.402 82.262 160.402 83.1778C160.402 84.1009 160.707 84.8596 161.317 85.4539C161.928 86.0481 162.708 86.3456 163.659 86.3456C164.653 86.3456 165.624 86.0321 166.571 85.4058Z" fill="white"/>
<path d="M170.39 82.7925C169.878 82.7925 169.457 82.9649 169.129 83.3104C168.8 83.6559 168.636 84.0953 168.636 84.6292C168.636 85.1587 168.804 85.5915 169.141 85.9269C169.477 86.2615 169.91 86.4295 170.438 86.4295C170.962 86.4295 171.391 86.26 171.726 85.9211C172.061 85.5814 172.227 85.1471 172.227 84.6168C172.227 84.0916 172.054 83.6559 171.706 83.3104C171.358 82.9649 170.919 82.7925 170.39 82.7925ZM170.449 81.8047C171.272 81.8047 171.954 82.0767 172.498 82.6208C173.042 83.1649 173.314 83.8487 173.314 84.6714C173.314 85.4708 173.038 86.1335 172.486 86.6616C171.934 87.1897 171.24 87.4537 170.402 87.4537C169.592 87.4537 168.916 87.1853 168.372 86.6499C167.827 86.1138 167.556 85.4439 167.556 84.6408C167.556 83.8305 167.831 83.1548 168.38 82.615C168.93 82.0753 169.62 81.8047 170.449 81.8047Z" fill="white"/>
<path d="M177.941 87.3602V86.6495C177.713 86.9049 177.454 87.1027 177.163 87.2446C176.871 87.3857 176.581 87.457 176.291 87.457C175.95 87.457 175.637 87.3697 175.349 87.1944C175.061 87.0205 174.845 86.7834 174.698 86.4844C174.551 86.1855 174.477 85.6879 174.477 84.9932V81.8203H175.546V84.9772C175.546 85.5592 175.627 85.9651 175.789 86.1956C175.951 86.4262 176.236 86.5412 176.643 86.5412C177.152 86.5412 177.584 86.2866 177.941 85.7767V81.8203H179.009V87.3602H177.941Z" fill="white"/>
<path d="M181.58 81.8193V82.5234C182.057 81.9815 182.599 81.7109 183.206 81.7109C183.542 81.7109 183.856 81.8004 184.146 81.9786C184.434 82.1576 184.656 82.402 184.805 82.7133C184.955 83.0246 185.031 83.5171 185.031 84.1921V87.3592H183.963V84.2038C183.963 83.6378 183.879 83.2334 183.71 82.9904C183.542 82.7475 183.261 82.626 182.865 82.626C182.36 82.626 181.932 82.885 181.58 83.4029V87.3592H180.488V81.8193H181.58Z" fill="white"/>
<path d="M190.572 86.0644V87.1483C190.035 87.3534 189.512 87.456 188.998 87.456C188.153 87.456 187.479 87.1985 186.977 86.6849C186.474 86.1714 186.222 85.4825 186.222 84.6191C186.222 83.7477 186.466 83.0457 186.956 82.5118C187.445 81.9779 188.089 81.7109 188.887 81.7109C189.165 81.7109 189.414 81.7379 189.636 81.7917C189.856 81.8462 190.129 81.9473 190.454 82.0965V83.2647C189.914 82.9112 189.413 82.7344 188.951 82.7344C188.47 82.7344 188.075 82.9082 187.766 83.2552C187.458 83.6029 187.303 84.0452 187.303 84.5827C187.303 85.1494 187.469 85.5989 187.804 85.9321C188.139 86.2652 188.59 86.4318 189.157 86.4318C189.568 86.4318 190.04 86.3096 190.572 86.0644Z" fill="white"/>
<path d="M191.81 87.3627H192.878V81.8228H191.81V87.3627ZM192.338 79.4922C192.514 79.4922 192.665 79.554 192.79 79.6784C192.916 79.8035 192.978 79.9555 192.978 80.1367C192.978 80.3127 192.916 80.4655 192.79 80.5942C192.665 80.7222 192.514 80.787 192.338 80.787C192.174 80.787 192.029 80.7215 191.904 80.5913C191.778 80.4611 191.716 80.3091 191.716 80.1367C191.716 79.9679 191.778 79.8188 191.904 79.6879C192.029 79.5569 192.174 79.4922 192.338 79.4922Z" fill="white"/>
<path d="M194.446 87.3577H195.514V78.9453H194.446V87.3577Z" fill="white"/>
<path d="M202.922 82.7925C202.409 82.7925 201.989 82.9649 201.66 83.3104C201.331 83.6559 201.166 84.0953 201.166 84.6292C201.166 85.1587 201.335 85.5915 201.672 85.9269C202.008 86.2615 202.44 86.4295 202.969 86.4295C203.493 86.4295 203.922 86.26 204.257 85.9211C204.592 85.5814 204.759 85.1471 204.759 84.6168C204.759 84.0916 204.585 83.6559 204.236 83.3104C203.888 82.9649 203.449 82.7925 202.922 82.7925ZM202.98 81.8047C203.802 81.8047 204.485 82.0767 205.028 82.6208C205.572 83.1649 205.845 83.8487 205.845 84.6714C205.845 85.4708 205.569 86.1335 205.016 86.6616C204.465 87.1897 203.77 87.4537 202.933 87.4537C202.123 87.4537 201.446 87.1853 200.903 86.6499C200.358 86.1138 200.086 85.4439 200.086 84.6408C200.086 83.8305 200.362 83.1548 200.911 82.615C201.461 82.0753 202.15 81.8047 202.98 81.8047Z" fill="white"/>
<path d="M208.099 81.8193V82.5234C208.576 81.9815 209.118 81.7109 209.725 81.7109C210.062 81.7109 210.375 81.8004 210.665 81.9786C210.954 82.1576 211.174 82.402 211.325 82.7133C211.476 83.0246 211.55 83.5171 211.55 84.1921V87.3592H210.482V84.2038C210.482 83.6378 210.398 83.2334 210.23 82.9904C210.062 82.7475 209.78 82.626 209.384 82.626C208.881 82.626 208.452 82.885 208.099 83.4029V87.3592H207.007V81.8193H208.099Z" fill="white"/>
<path d="M218.859 80.0097H217.644V82.6414H218.929C219.407 82.6414 219.775 82.5258 220.034 82.2952C220.291 82.0639 220.421 81.7344 220.421 81.3045C220.421 80.441 219.901 80.0097 218.859 80.0097ZM216.464 87.3623V78.9375H219.064C219.847 78.9375 220.472 79.1543 220.937 79.5878C221.403 80.0221 221.636 80.604 221.636 81.3343C221.636 81.8246 221.516 82.2581 221.278 82.6349C221.039 83.0124 220.712 83.2866 220.297 83.4569C219.882 83.6278 219.287 83.7129 218.512 83.7129H217.644V87.3623H216.464Z" fill="white"/>
<path d="M223.655 81.8193V83.0901L223.713 82.9934C224.231 82.1387 224.746 81.7109 225.264 81.7109C225.666 81.7109 226.087 81.9197 226.525 82.3372L225.962 83.3003C225.591 82.9395 225.247 82.7584 224.929 82.7584C224.585 82.7584 224.286 82.9272 224.035 83.2647C223.781 83.6015 223.655 84.0015 223.655 84.4627V87.3592H222.581V81.8193H223.655Z" fill="white"/>
<path d="M229.496 82.7925C228.983 82.7925 228.562 82.9649 228.233 83.3104C227.905 83.6559 227.74 84.0953 227.74 84.6292C227.74 85.1587 227.909 85.5915 228.245 85.9269C228.582 86.2615 229.015 86.4295 229.542 86.4295C230.067 86.4295 230.497 86.26 230.831 85.9211C231.165 85.5814 231.333 85.1471 231.333 84.6168C231.333 84.0916 231.158 83.6559 230.81 83.3104C230.462 82.9649 230.024 82.7925 229.496 82.7925ZM229.554 81.8047C230.377 81.8047 231.059 82.0767 231.603 82.6208C232.146 83.1649 232.419 83.8487 232.419 84.6714C232.419 85.4708 232.143 86.1335 231.591 86.6616C231.039 87.1897 230.345 87.4537 229.507 87.4537C228.698 87.4537 228.021 87.1853 227.476 86.6499C226.932 86.1138 226.661 85.4439 226.661 84.6408C226.661 83.8305 226.935 83.1548 227.485 82.615C228.035 82.0753 228.725 81.8047 229.554 81.8047Z" fill="white"/>
<path d="M234.626 83.2632V86.2615C234.99 86.3743 235.364 86.4303 235.747 86.4303C236.221 86.4303 236.607 86.2579 236.907 85.9124C237.206 85.5669 237.356 85.1239 237.356 84.5812C237.356 84.032 237.216 83.584 236.936 83.2384C236.656 82.8937 236.291 82.7205 235.841 82.7205C235.442 82.7205 235.037 82.9017 234.626 83.2632ZM233.557 78.9453H234.626V82.215C235.088 81.8695 235.581 81.6971 236.105 81.6971C236.79 81.6971 237.35 81.9619 237.784 82.4921C238.218 83.0224 238.435 83.7025 238.435 84.5332C238.435 85.425 238.177 86.1342 237.657 86.6623C237.139 87.1904 236.446 87.4545 235.577 87.4545C235.229 87.4545 234.862 87.4159 234.476 87.3395C234.09 87.2639 233.785 87.1672 233.557 87.0508V78.9453Z" fill="white"/>
<path d="M239.639 87.3577H240.707V78.9453H239.639V87.3577Z" fill="white"/>
<path d="M243.078 84.0292H245.795C245.769 83.592 245.64 83.2545 245.413 83.0174C245.187 82.7802 244.882 82.6624 244.498 82.6624C244.114 82.6624 243.801 82.7802 243.556 83.0174C243.311 83.2545 243.151 83.592 243.078 84.0292ZM246.852 84.686H243.054C243.081 85.2156 243.255 85.6367 243.573 85.9502C243.892 86.263 244.304 86.4201 244.808 86.4201C245.514 86.4201 246.163 86.1954 246.758 85.7451V86.8173C246.429 87.0421 246.104 87.2028 245.781 87.2989C245.457 87.3956 245.079 87.4436 244.645 87.4436C244.05 87.4436 243.568 87.317 243.201 87.0646C242.833 86.8115 242.539 86.4711 242.318 86.0434C242.096 85.6156 241.986 85.1217 241.986 84.5594C241.986 83.7164 242.218 83.0304 242.684 82.5031C243.151 81.975 243.755 81.7109 244.498 81.7109C245.215 81.7109 245.786 81.9677 246.212 82.4813C246.638 82.9955 246.852 83.6844 246.852 84.5471V84.686Z" fill="white"/>
<path d="M252.434 83.3373V87.3599H251.359V84.2771C251.359 83.6625 251.278 83.234 251.119 82.9911C250.958 82.7481 250.679 82.6267 250.279 82.6267C250.057 82.6267 249.852 82.679 249.666 82.783C249.48 82.8878 249.268 83.0718 249.029 83.3373V87.3599H247.961V81.82H249.029V82.5481C249.573 81.9902 250.105 81.7116 250.625 81.7116C251.31 81.7116 251.84 82.0447 252.217 82.711C252.788 82.0367 253.384 81.6992 254.007 81.6992C254.531 81.6992 254.963 81.8963 255.301 82.2899C255.64 82.6834 255.809 83.2828 255.809 84.0902V87.3599H254.741V84.0786C254.741 83.6167 254.649 83.2631 254.465 83.018C254.281 82.7729 254.017 82.6507 253.671 82.6507C253.23 82.6507 252.817 82.8798 252.434 83.3373Z" fill="white"/>
<path d="M265.196 83.2142H267.949V86.7785C266.939 87.2287 265.937 87.4535 264.944 87.4535C263.586 87.4535 262.502 87.0469 261.689 86.2336C260.877 85.4211 260.47 84.418 260.47 83.2258C260.47 81.9696 260.891 80.9236 261.733 80.0885C262.574 79.2535 263.628 78.8359 264.896 78.8359C265.358 78.8359 265.796 78.8869 266.212 78.9894C266.626 79.092 267.151 79.2789 267.785 79.5524V80.781C266.806 80.1984 265.836 79.9081 264.873 79.9081C263.977 79.9081 263.221 80.2209 262.607 80.8472C261.993 81.4735 261.685 82.2424 261.685 83.1531C261.685 84.1089 261.993 84.8901 262.607 85.496C263.221 86.1027 264.012 86.4053 264.979 86.4053C265.448 86.4053 266.01 86.2947 266.664 86.0743L266.775 86.038V84.2856H265.196V83.2142Z" fill="white"/>
<path d="M271.857 86.263V84.6191L271.141 84.9021C270.778 85.0504 270.52 85.2003 270.37 85.3516C270.218 85.5014 270.144 85.6891 270.144 85.9139C270.144 86.143 270.215 86.3292 270.359 86.474C270.501 86.6187 270.685 86.6907 270.913 86.6907C271.253 86.6907 271.568 86.5482 271.857 86.263ZM272.907 84.0292V86.3838C272.907 86.5729 272.971 86.6667 273.096 86.6667C273.225 86.6667 273.427 86.5685 273.7 86.3714V87.0406C273.458 87.2006 273.263 87.3098 273.117 87.3687C272.97 87.4269 272.816 87.456 272.656 87.456C272.198 87.456 271.928 87.2712 271.845 86.9017C271.392 87.2625 270.909 87.4436 270.395 87.4436C270.02 87.4436 269.707 87.3163 269.457 87.061C269.206 86.8064 269.082 86.4863 269.082 86.1008C269.082 85.7509 269.203 85.4396 269.448 85.1639C269.693 84.8897 270.039 84.6715 270.49 84.5107L271.857 84.0292V83.7338C271.857 83.0675 271.533 82.7344 270.883 82.7344C270.3 82.7344 269.733 83.0435 269.181 83.6618V82.4631C269.595 81.9612 270.193 81.7109 270.971 81.7109C271.555 81.7109 272.022 81.8673 272.374 82.1801C272.491 82.2805 272.598 82.4143 272.692 82.5809C272.784 82.7475 272.844 82.9141 272.871 83.0806C272.896 83.2472 272.907 83.5636 272.907 84.0292Z" fill="white"/>
<path d="M279.072 83.3373V87.3599H277.997V84.2771C277.997 83.6625 277.917 83.234 277.757 82.9911C277.596 82.7481 277.316 82.6267 276.918 82.6267C276.695 82.6267 276.49 82.679 276.304 82.783C276.118 82.8878 275.906 83.0718 275.667 83.3373V87.3599H274.599V81.82H275.667V82.5481C276.21 81.9902 276.743 81.7116 277.264 81.7116C277.949 81.7116 278.478 82.0447 278.855 82.711C279.426 82.0367 280.022 81.6992 280.644 81.6992C281.169 81.6992 281.6 81.8963 281.939 82.2899C282.277 82.6834 282.446 83.2828 282.446 84.0902V87.3599H281.379V84.0786C281.379 83.6167 281.287 83.2631 281.103 83.018C280.919 82.7729 280.654 82.6507 280.31 82.6507C279.867 82.6507 279.456 82.8798 279.072 83.3373Z" fill="white"/>
<path d="M284.935 83.2632V86.2615C285.299 86.3743 285.672 86.4303 286.055 86.4303C286.53 86.4303 286.916 86.2579 287.215 85.9124C287.514 85.5669 287.665 85.1239 287.665 84.5812C287.665 84.032 287.524 83.584 287.244 83.2384C286.964 82.8937 286.6 82.7205 286.15 82.7205C285.751 82.7205 285.345 82.9017 284.935 83.2632ZM283.866 78.9453H284.935V82.215C285.397 81.8695 285.889 81.6971 286.414 81.6971C287.099 81.6971 287.658 81.9619 288.092 82.4921C288.527 83.0224 288.744 83.7025 288.744 84.5332C288.744 85.425 288.484 86.1342 287.967 86.6623C287.448 87.1904 286.755 87.4545 285.886 87.4545C285.538 87.4545 285.17 87.4159 284.785 87.3395C284.399 87.2639 284.093 87.1672 283.866 87.0508V78.9453Z" fill="white"/>
<path d="M289.948 87.3577H291.017V78.9453H289.948V87.3577Z" fill="white"/>
<path d="M292.583 87.3627H293.651V81.8228H292.583V87.3627ZM293.112 79.4922C293.287 79.4922 293.438 79.554 293.563 79.6784C293.689 79.8035 293.751 79.9555 293.751 80.1367C293.751 80.3127 293.689 80.4655 293.563 80.5942C293.438 80.7222 293.287 80.787 293.112 80.787C292.947 80.787 292.803 80.7215 292.677 80.5913C292.551 80.4611 292.489 80.3091 292.489 80.1367C292.489 79.9679 292.551 79.8188 292.677 79.6879C292.803 79.5569 292.947 79.4922 293.112 79.4922Z" fill="white"/>
<path d="M296.264 81.8193V82.5234C296.742 81.9815 297.283 81.7109 297.89 81.7109C298.226 81.7109 298.54 81.8004 298.829 81.9786C299.118 82.1576 299.339 82.402 299.489 82.7133C299.639 83.0246 299.715 83.5171 299.715 84.1921V87.3592H298.647V84.2038C298.647 83.6378 298.562 83.2334 298.395 82.9904C298.226 82.7475 297.945 82.626 297.549 82.626C297.044 82.626 296.616 82.885 296.264 83.4029V87.3592H295.172V81.8193H296.264Z" fill="white"/>
<path d="M302.938 82.7718C302.649 82.7718 302.402 82.8721 302.198 83.0722C301.996 83.2737 301.894 83.5144 301.894 83.7952C301.894 84.0804 301.994 84.316 302.192 84.503C302.392 84.6892 302.644 84.783 302.949 84.783C303.251 84.783 303.502 84.6877 303.704 84.4972C303.906 84.3066 304.006 84.068 304.006 83.7836C304.006 83.4941 303.904 83.2533 303.702 83.0605C303.498 82.8678 303.243 82.7718 302.938 82.7718ZM302.686 87.6192C302.325 87.6192 302.03 87.6977 301.802 87.8541C301.573 88.0105 301.459 88.2113 301.459 88.4564C301.459 89.026 301.959 89.3111 302.961 89.3111C303.435 89.3111 303.802 89.2398 304.062 89.0973C304.322 88.9554 304.452 88.7532 304.452 88.4921C304.452 88.2353 304.288 88.0258 303.959 87.8636C303.631 87.7006 303.206 87.6192 302.686 87.6192ZM300.931 83.7348C300.931 83.1449 301.141 82.6786 301.561 82.3353C301.982 81.992 302.557 81.8203 303.284 81.8203H305.509V82.675H304.418C304.629 82.8961 304.776 83.0969 304.857 83.2773C304.94 83.4584 304.981 83.665 304.981 83.8978C304.981 84.1873 304.9 84.471 304.74 84.7496C304.579 85.0289 304.373 85.2427 304.121 85.3911C303.868 85.5395 303.454 85.6581 302.879 85.7461C302.476 85.8065 302.274 85.9491 302.274 86.1738C302.274 86.3026 302.35 86.408 302.501 86.4902C302.651 86.5724 302.924 86.6575 303.319 86.7463C303.98 86.8947 304.406 87.0111 304.596 87.0954C304.786 87.1798 304.957 87.2998 305.11 87.457C305.369 87.7217 305.497 88.0549 305.497 88.4564C305.497 88.9823 305.269 89.4013 304.813 89.7148C304.357 90.0283 303.748 90.1847 302.985 90.1847C302.213 90.1847 301.599 90.0269 301.139 89.7119C300.678 89.3969 300.449 88.9743 300.449 88.4448C300.449 87.6934 300.902 87.2096 301.805 86.9929C301.445 86.7565 301.265 86.5215 301.265 86.2888C301.265 86.112 301.342 85.9512 301.497 85.8065C301.651 85.6625 301.859 85.5555 302.122 85.4879C301.328 85.1264 300.931 84.5423 300.931 83.7348Z" fill="white"/>
<path d="M114.331 73.0013H306.528V72.6602H114.331V73.0013Z" fill="white"/>
<path d="M0.504104 54.4245C2.09518 65.465 9.15787 79.6457 19.3921 85.8134C19.5147 85.8876 19.6388 85.9545 19.7622 86.0265C20.3748 86.3815 20.9938 86.7183 21.6277 87.0136C25.3196 88.731 29.5398 89.6388 33.8323 89.6388C33.8337 89.6388 33.8351 89.6388 33.8351 89.6388C34.63 89.6388 35.4212 89.5988 36.2111 89.5391C36.4564 89.5202 36.7018 89.494 36.9464 89.47C37.5136 89.414 38.0787 89.342 38.6417 89.2562C38.8955 89.2176 39.1493 89.182 39.4025 89.1376C40.142 89.006 40.8773 88.8554 41.6061 88.6728C41.7543 88.6364 41.9004 88.5906 42.0486 88.5513C42.6825 88.3833 43.3107 88.1971 43.9332 87.9905C44.2097 87.8996 44.4827 87.7992 44.7564 87.701C45.2492 87.5235 45.7363 87.3337 46.2198 87.1322C46.4836 87.0231 46.7481 86.9154 47.009 86.799C47.6833 86.4979 48.3498 86.1785 49.0021 85.8308C49.0312 85.8163 49.0609 85.8032 49.0893 85.7879C49.1396 85.7617 49.1886 85.7312 49.2389 85.7035C49.972 85.3064 50.6931 84.883 51.3944 84.4291C51.4029 84.4233 51.4121 84.4175 51.4206 84.4124C52.1623 83.9309 52.8855 83.4188 53.5867 82.8761C54.7658 81.9625 55.8627 80.9791 56.8795 79.9374C56.9376 79.877 56.9936 79.8152 57.0518 79.7548C57.4438 79.346 57.8196 78.9271 58.1869 78.5008C58.3096 78.3582 58.4337 78.2171 58.5535 78.0724C58.9264 77.6243 59.2859 77.1675 59.6312 76.7012C59.8383 76.4211 60.034 76.1331 60.2318 75.8458C60.3594 75.6617 60.4856 75.477 60.609 75.29C63.3409 71.1329 65.0943 66.3299 65.6892 61.1988L65.7431 60.7136C66.0331 57.8083 65.9225 54.8944 65.4694 52.0444C64.8625 54.7162 63.7287 57.2584 62.0866 59.5272C58.9364 63.88 54.3227 66.7132 49.095 67.5061C48.3349 67.6225 47.5535 67.6923 46.7722 67.7163C45.8242 67.8051 44.767 67.8531 43.7247 67.8531C36.7968 67.8531 30.0872 65.7843 24.3185 61.8694C18.1874 57.8047 13.5581 51.9375 10.9531 45.1537C10.8822 44.9697 10.8078 44.7864 10.7404 44.6016C10.6305 44.3019 10.5291 43.9993 10.4278 43.696C10.3363 43.4239 10.247 43.1519 10.1619 42.8769C10.0796 42.61 10.0002 42.3423 9.92434 42.0732C9.83287 41.7509 9.74779 41.4258 9.66483 41.0992C9.60386 40.8584 9.54288 40.6176 9.48687 40.3747C9.39895 39.995 9.32095 39.6109 9.24579 39.2254C9.2068 39.0275 9.16355 38.8304 9.12809 38.6304C9.02316 38.0419 8.92956 37.4498 8.85299 36.8504C8.73954 35.9528 8.66509 35.0544 8.61688 34.1568C8.60128 33.8644 8.60128 33.5734 8.59277 33.2818C8.57363 32.6737 8.56228 32.067 8.57292 31.4611C8.5793 31.1228 8.5949 30.7868 8.60979 30.45C8.63461 29.8855 8.67006 29.324 8.71969 28.7639C8.75018 28.422 8.78279 28.0823 8.82179 27.7419C8.88844 27.1738 8.97069 26.6093 9.06144 26.0456C9.1125 25.7313 9.15787 25.4156 9.21672 25.1036C9.33868 24.4511 9.48403 23.8051 9.64002 23.1621C9.69107 22.9504 9.73148 22.7366 9.78608 22.5256C10.0066 21.6789 10.2555 20.8424 10.5327 20.0176C10.6015 19.8117 10.6844 19.6117 10.7567 19.408C10.9758 18.789 11.2049 18.175 11.4559 17.5713C11.5757 17.2832 11.7061 17.0025 11.8324 16.7181C12.0614 16.2038 12.2975 15.6953 12.5492 15.1934C12.6173 15.0567 12.674 14.9126 12.7449 14.7773C3.06159 25.1727 -1.61946 39.6895 0.504104 54.4245Z" fill="white"/>
<path d="M45.9215 94.5408C56.4478 94.5408 66.7593 90.7911 74.9572 83.9847C83.394 76.9806 91.6812 63.5738 91.6891 51.4196C91.6897 51.2276 91.6833 51.0385 91.6798 50.8479C91.6649 50.1452 91.6351 49.444 91.5621 48.7515C91.4904 48.0721 91.3919 47.3956 91.2706 46.722C91.2536 46.6268 91.2295 46.5322 91.2118 46.4369C91.0969 45.8324 90.9693 45.2294 90.8162 44.6322C90.8112 44.6126 90.8055 44.5937 90.8006 44.5748C88.7089 36.4882 83.1742 29.1327 75.8619 24.697C75.7144 24.609 75.5655 24.5217 75.4166 24.4351C74.9621 24.1696 74.5027 23.915 74.0361 23.6728C73.8979 23.6008 73.7603 23.5295 73.6214 23.459C73.0336 23.1644 72.4387 22.8836 71.8325 22.6268C68.0739 21.0396 64.1203 20.2344 60.083 20.2344C52.5169 20.2344 45.3748 23.0094 39.7692 27.8663C41.7183 27.2204 43.7646 26.8836 45.83 26.8836C51.8356 26.8836 57.4447 29.6273 61.2196 34.4122C61.7067 35.0305 62.1634 35.6837 62.5774 36.3573C62.9823 36.9319 63.412 37.5924 63.8204 38.266L63.8445 38.2536C64.1146 38.7002 64.3727 39.1527 64.623 39.6102C64.7974 39.9288 64.9612 40.2503 65.1257 40.5718C65.1824 40.6831 65.242 40.7923 65.2966 40.9043C71.775 53.8717 70.0145 69.1828 61.2246 79.9571C61.1445 80.0553 61.0615 80.1513 60.98 80.2481C60.7311 80.547 60.4801 80.8453 60.2192 81.137C60.027 81.3537 59.8271 81.5654 59.6278 81.7778C59.4704 81.9458 59.3145 82.116 59.1528 82.2812C58.8642 82.5779 58.5671 82.8675 58.2672 83.154C58.1843 83.2326 58.1041 83.3126 58.0212 83.3905C57.6539 83.7352 57.2774 84.0713 56.8938 84.4008C56.8683 84.4226 56.8435 84.4452 56.8179 84.467C56.6917 84.5747 56.5705 84.6874 56.4429 84.7936C56.1557 85.0322 55.8593 85.257 55.5651 85.4861C55.5523 85.4956 55.541 85.5057 55.5289 85.5152C55.5247 85.5181 55.5211 85.5203 55.5176 85.5232C54.7525 86.116 53.9648 86.6747 53.1565 87.1984C53.1402 87.2086 53.1246 87.2188 53.1083 87.229C52.3326 87.7294 51.542 88.2015 50.7323 88.6343C50.682 88.6612 50.633 88.691 50.5827 88.7187C50.5792 88.7201 50.5756 88.7223 50.5721 88.7245C49.8198 89.1268 49.0505 89.4934 48.2727 89.8403C48.0202 89.9531 47.765 90.0564 47.5112 90.1626C46.9368 90.4034 46.3576 90.6281 45.7726 90.8383C45.5088 90.9329 45.2472 91.0296 44.982 91.1177C44.1773 91.3853 43.3661 91.6334 42.5458 91.8429C42.4564 91.8662 42.365 91.8822 42.2749 91.9047C41.5134 92.0931 40.7463 92.2517 39.9748 92.3892C39.7011 92.4379 39.426 92.4786 39.1509 92.5208C38.522 92.6176 37.8917 92.6969 37.2585 92.7594C37.0047 92.7841 36.7523 92.8147 36.4977 92.8336C35.6689 92.8976 34.8393 92.9405 34.0083 92.9449C37.881 93.9996 41.8892 94.5408 45.918 94.5408C45.9194 94.5408 45.9201 94.5408 45.9215 94.5408Z" fill="white"/>
<path d="M84.2577 27.0827C86.5968 29.3813 88.6211 31.9752 90.2554 34.7888C86.4578 20.5106 76.3016 8.6852 62.3974 3.14893C57.2981 1.11802 51.1876 0 45.1913 0C36.8403 0 29.4408 2.08474 24.3528 5.87087C24.3506 5.87306 24.3478 5.87451 24.345 5.87669C17.7169 10.8143 13.2812 18.954 12.1035 27.6457C11.7107 30.5437 11.6802 33.5028 12.051 36.4247C12.1375 37.107 12.2517 37.7806 12.38 38.4484C12.4183 38.6477 12.463 38.8448 12.5048 39.0434C12.6076 39.5293 12.7196 40.0116 12.8444 40.4887C12.8948 40.6844 12.9458 40.8801 13.0004 41.0743C13.1585 41.638 13.3301 42.1952 13.5173 42.7451C13.5435 42.823 13.5662 42.903 13.5932 42.9801C14.0647 44.3294 14.6227 45.6358 15.2594 46.8921C15.2778 46.9277 15.2963 46.9634 15.314 46.999C17.9317 52.1156 21.8655 56.4072 26.6344 59.4412C26.6451 59.4485 26.655 59.4536 26.6649 59.4609C28.4559 60.5971 30.3632 61.5572 32.3627 62.3174C26.5423 56.8262 24.2641 48.0232 27.2945 40.0152C27.5732 39.2783 27.8994 38.5473 28.2645 37.8395C33.9297 25.1238 46.3825 16.8503 59.9477 16.8503C64.17 16.8503 68.32 17.6504 72.2828 19.2282C73.196 19.5926 74.0915 20.0131 74.975 20.4575C75.2154 20.5768 75.4522 20.7026 75.6897 20.827C75.8804 20.9289 76.0783 21.0198 76.2669 21.1253C76.4044 21.2002 76.5335 21.2875 76.6696 21.3646C77.1425 21.6315 77.6069 21.9087 78.0664 22.196C78.2805 22.3306 78.4932 22.4651 78.7038 22.6041C79.2136 22.9379 79.7121 23.2849 80.2027 23.6435C80.3516 23.7526 80.5012 23.8603 80.648 23.9716C81.1946 24.384 81.7271 24.8117 82.2476 25.2525C82.3326 25.3246 82.4177 25.3944 82.5014 25.4664C83.0828 25.9676 83.6465 26.4862 84.1939 27.0216C84.2151 27.042 84.2371 27.0616 84.2577 27.0827Z" fill="white"/>
</svg>
