<svg width="200" height="60" viewBox="0 0 200 60" fill="none" xmlns="http://www.w3.org/2000/svg">
<path d="M105.001 32.1747C105.001 33.5059 105.001 38.7865 105.136 39.9403C105.046 40.2065 104.775 40.4282 104.277 40.4282C103.735 39.6742 102.424 38.1209 98.4907 33.7276L88.0025 22.0124C86.7817 20.6364 83.7073 16.998 82.7581 16.0214H82.6676C82.487 16.5541 82.4417 17.5747 82.4417 18.9058V28.5802C82.4417 30.6658 82.487 36.4347 83.2556 37.7659C83.5267 38.2537 84.4311 38.5203 85.5609 38.6092L86.9623 38.742C87.2339 39.097 87.1886 39.6298 86.8722 39.8515C84.838 39.7626 83.2556 39.7182 81.5826 39.7182C79.6838 39.7182 78.463 39.7626 76.881 39.8515C76.5646 39.6298 76.5193 39.0086 76.7905 38.742L78.0112 38.6092C79.051 38.4759 79.7743 38.2098 80.0006 37.7215C80.6334 36.1237 80.5881 30.7103 80.5881 28.5802V15.7552C80.5881 14.5125 80.5429 13.5812 79.5937 12.5602C78.9609 11.9386 77.8754 11.628 76.7905 11.4952L76.0219 11.4063C75.7507 11.1402 75.7507 10.4742 76.1124 10.2969C78.0112 10.4302 80.4071 10.4302 81.2209 10.4302C81.9447 10.4302 82.7129 10.3857 83.3008 10.2969C84.2048 12.5602 89.5392 18.4175 91.0311 20.0597L95.4163 24.8969C98.536 28.3136 100.751 30.7991 102.876 32.9287H102.966C103.148 32.707 103.148 31.997 103.148 31.0648V21.5686C103.148 19.483 103.102 13.7141 102.243 12.3825C101.972 11.983 101.248 11.7169 99.4399 11.4952L98.6713 11.4063C98.3549 11.1402 98.4002 10.4302 98.7618 10.2969C100.842 10.3857 102.378 10.4302 104.097 10.4302C106.041 10.4302 107.216 10.3857 108.754 10.2969C109.115 10.5186 109.115 11.1402 108.844 11.4063L108.211 11.4952C106.764 11.7169 105.86 12.0719 105.679 12.4269C104.91 14.0246 105.001 19.5274 105.001 21.5686V32.1747Z" fill="#121212"/>
<path d="M117.978 13.4949C121.279 10.9654 125.483 9.72266 130.185 9.72266C132.626 9.72266 136.061 10.211 138.187 10.7877C138.729 10.9205 139.045 11.0094 139.452 10.9654C139.497 11.9855 139.724 14.7816 140.085 17.4883C139.859 17.7989 139.181 17.8433 138.865 17.5772C138.187 14.5594 136.152 11.0982 129.597 11.0982C122.679 11.0982 116.803 15.4027 116.803 24.5884C116.803 33.9078 122.815 39.0556 130.23 39.0556C136.061 39.0556 138.638 35.3278 139.678 32.7095C139.995 32.4878 140.673 32.5766 140.854 32.8867C140.537 35.1945 139.362 38.1234 138.684 38.9662C138.141 39.0556 137.599 39.2328 137.101 39.4101C136.107 39.7651 132.852 40.4307 129.958 40.4307C125.89 40.4307 122.002 39.6323 118.702 37.4578C115.085 35.0172 112.282 30.9789 112.282 25.2544C112.282 20.3283 114.542 16.1127 117.978 13.4949Z" fill="#121212"/>
<path d="M151.252 33.062C151.252 37.7215 151.343 38.2986 154.236 38.6092L155.457 38.742C155.728 38.9637 155.638 39.7182 155.367 39.8515C152.79 39.7626 151.297 39.7182 149.489 39.7182C147.591 39.7182 145.963 39.7626 143.974 39.8515C143.703 39.7182 143.612 39.0086 143.884 38.742L144.833 38.6092C147.455 38.2537 147.545 37.7215 147.545 33.062V16.6874C147.545 12.9152 147.455 12.1608 145.421 11.9386L143.793 11.7613C143.477 11.4952 143.522 10.8296 143.884 10.6519C146.28 10.3413 149.083 10.2969 152.835 10.2969C156.587 10.2969 159.39 10.7852 161.515 12.0719C163.595 13.3586 165.132 15.6664 165.132 18.7281C165.132 22.8109 162.555 24.8525 160.611 25.7842C158.621 26.7164 156.225 27.1158 154.372 27.1158C154.055 26.9825 154.055 26.3169 154.326 26.2281C159.209 25.3403 160.973 22.6336 160.973 18.773C160.973 14.4685 158.396 11.6725 153.694 11.6725C151.297 11.6725 151.252 11.8502 151.252 13.2702V33.062Z" fill="#121212"/>
<path d="M195.873 35.1945C195.873 36.9695 196.145 38.0345 196.959 38.3451C197.095 38.4784 197.095 38.7445 196.913 38.8774C196.371 38.8774 195.558 39.0556 194.698 39.2773C192.303 39.8984 189.048 40.4307 186.606 40.4307C181.226 40.4307 176.298 38.9662 172.817 35.5051C170.105 32.8423 168.658 29.3372 168.658 25.4317C168.658 21.6595 169.924 17.8433 172.727 14.9149C175.756 11.8082 180.232 9.72266 187.058 9.72266C189.635 9.72266 192.031 10.211 192.8 10.3882C193.658 10.5655 195.061 10.8765 195.602 10.7877C195.602 12.2521 195.873 14.5594 196.28 17.2222C196.145 17.5772 195.331 17.6216 195.061 17.355C193.794 12.5627 190.404 11.0538 185.792 11.0538C177.022 11.0538 173.179 17.1777 173.179 23.8344C173.179 32.3545 177.655 39.0556 186.742 39.0556C189.545 39.0556 191.218 38.4784 191.715 37.724C191.941 37.4134 192.167 36.6145 192.167 35.1945V33.4195C192.167 29.6917 192.031 29.4256 189.229 29.115L187.239 28.8933C186.878 28.7156 186.922 27.9167 187.239 27.7839C188.55 27.8727 191.037 27.9167 193.703 27.9167C195.467 27.9167 197.004 27.8727 198.496 27.7839C198.812 27.9611 198.857 28.6267 198.541 28.8933L197.818 28.9817C195.919 29.2039 195.873 30.4462 195.873 32.7095V35.1945Z" fill="#121212"/>
<path d="M78.899 49.6289H79.6255V54.8723H78.9678L75.3964 50.834V54.8723H74.6777V49.6289H75.2967L78.899 53.7017V49.6289Z" fill="#121212"/>
<path d="M82.1985 54.1928V53.1681L81.7324 53.3445C81.495 53.437 81.3273 53.5304 81.2294 53.6247C81.131 53.7181 81.0821 53.8351 81.0821 53.9751C81.0821 54.118 81.1282 54.234 81.2215 54.3243C81.3148 54.4145 81.4349 54.4594 81.5827 54.4594C81.8049 54.4594 82.01 54.3705 82.1985 54.1928ZM82.883 52.8004V54.268C82.883 54.3859 82.9236 54.4444 83.0054 54.4444C83.0899 54.4444 83.2206 54.3832 83.3994 54.2603V54.6774C83.2409 54.7772 83.1144 54.8452 83.0188 54.8819C82.9232 54.9182 82.8229 54.9363 82.7185 54.9363C82.4202 54.9363 82.2446 54.8212 82.1911 54.5909C81.8954 54.8157 81.5804 54.9286 81.2465 54.9286C81.0017 54.9286 80.7975 54.8493 80.6345 54.6901C80.4714 54.5315 80.3901 54.332 80.3901 54.0917C80.3901 53.8736 80.4696 53.6795 80.6289 53.5077C80.7883 53.3368 81.0142 53.2008 81.3075 53.1006L82.1985 52.8004V52.6163C82.1985 52.201 81.9869 51.9934 81.5638 51.9934C81.1841 51.9934 80.8142 52.1861 80.4548 52.5715V51.8243C80.725 51.5114 81.1139 51.3555 81.6211 51.3555C82.0012 51.3555 82.3056 51.4529 82.5352 51.6479C82.6114 51.7105 82.6802 51.7939 82.7416 51.8977C82.8026 52.0015 82.8414 52.1054 82.858 52.2092C82.8747 52.313 82.883 52.5102 82.883 52.8004Z" fill="#121212"/>
<path d="M83.5215 51.9645L84.8291 50.7031V51.4163H85.9418V52.032H84.8291V53.7218C84.8291 54.1167 84.9958 54.3139 85.3303 54.3139C85.5797 54.3139 85.8434 54.2328 86.1215 54.07V54.7079C85.8536 54.8557 85.5621 54.9296 85.2457 54.9296C84.9275 54.9296 84.6619 54.838 84.4504 54.6553C84.3843 54.6005 84.3293 54.5383 84.2859 54.4694C84.2425 54.401 84.206 54.3107 84.1769 54.1997C84.1478 54.0881 84.133 53.8759 84.133 53.5631V52.032H83.5215V51.9645Z" fill="#121212"/>
<path d="M86.6376 54.8705H87.3337V51.4175H86.6376V54.8705ZM86.9817 49.9648C87.0963 49.9648 87.1946 50.0034 87.2759 50.0809C87.3577 50.1589 87.3983 50.2537 87.3983 50.3665C87.3983 50.4763 87.3577 50.5715 87.2759 50.6517C87.1946 50.7315 87.0963 50.7719 86.9817 50.7719C86.8746 50.7719 86.7803 50.7311 86.6986 50.6499C86.6173 50.5688 86.5762 50.474 86.5762 50.3665C86.5762 50.2614 86.6173 50.1684 86.6986 50.0868C86.7803 50.0052 86.8746 49.9648 86.9817 49.9648Z" fill="#121212"/>
<path d="M89.9838 52.0298C89.6494 52.0298 89.3755 52.1372 89.1617 52.3526C88.9473 52.5679 88.8402 52.8418 88.8402 53.1746C88.8402 53.5046 88.9497 53.7744 89.1691 53.9834C89.3885 54.192 89.6702 54.2967 90.0143 54.2967C90.3557 54.2967 90.6356 54.1911 90.8536 53.9798C91.0716 53.7681 91.1806 53.4974 91.1806 53.1669C91.1806 52.8395 91.067 52.5679 90.8402 52.3526C90.6134 52.1372 90.3275 52.0298 89.9838 52.0298ZM90.0217 51.4141C90.557 51.4141 91.0018 51.5836 91.3566 51.9228C91.7109 52.2619 91.8878 52.6881 91.8878 53.2009C91.8878 53.6991 91.7081 54.1122 91.3487 54.4413C90.9894 54.7705 90.5367 54.9351 89.9912 54.9351C89.4637 54.9351 89.0226 54.7678 88.6684 54.4341C88.3141 54.0999 88.1367 53.6824 88.1367 53.1818C88.1367 52.6768 88.3159 52.2556 88.6739 51.9191C89.0323 51.5827 89.4813 51.4141 90.0217 51.4141Z" fill="#121212"/>
<path d="M93.3563 51.423V51.8619C93.6672 51.5241 94.0205 51.3555 94.4159 51.3555C94.6349 51.3555 94.839 51.4112 95.0275 51.5223C95.2159 51.6338 95.3591 51.7862 95.4575 51.9802C95.5554 52.1743 95.6048 52.4812 95.6048 52.902V54.876H94.9088V52.9092C94.9088 52.5565 94.8538 52.3044 94.7443 52.153C94.6349 52.0015 94.4515 51.9258 94.1937 51.9258C93.8649 51.9258 93.5859 52.0872 93.3563 52.41V54.876H92.645V51.423H93.3563Z" fill="#121212"/>
<path d="M98.1022 54.1928V53.1681L97.6357 53.3445C97.3988 53.437 97.2311 53.5304 97.1327 53.6247C97.0348 53.7181 96.9854 53.8351 96.9854 53.9751C96.9854 54.118 97.032 54.234 97.1253 54.3243C97.2182 54.4145 97.3387 54.4594 97.4865 54.4594C97.7082 54.4594 97.9133 54.3705 98.1022 54.1928ZM98.7868 52.8004V54.268C98.7868 54.3859 98.8274 54.4444 98.9092 54.4444C98.9932 54.4444 99.1244 54.3832 99.3032 54.2603V54.6774C99.1447 54.7772 99.0182 54.8452 98.9226 54.8819C98.8269 54.9182 98.7267 54.9363 98.6223 54.9363C98.3239 54.9363 98.1484 54.8212 98.0944 54.5909C97.7988 54.8157 97.4842 54.9286 97.1503 54.9286C96.9055 54.9286 96.7013 54.8493 96.5383 54.6901C96.3752 54.5315 96.2935 54.332 96.2935 54.0917C96.2935 53.8736 96.3734 53.6795 96.5327 53.5077C96.6916 53.3368 96.9179 53.2008 97.2112 53.1006L98.1022 52.8004V52.6163C98.1022 52.201 97.8907 51.9934 97.4671 51.9934C97.0875 51.9934 96.7179 52.1861 96.3586 52.5715V51.8243C96.6288 51.5114 97.0172 51.3555 97.5249 51.3555C97.9045 51.3555 98.2089 51.4529 98.4385 51.6479C98.5152 51.7105 98.584 51.7939 98.645 51.8977C98.7064 52.0015 98.7452 52.1054 98.7618 52.2092C98.7784 52.313 98.7868 52.5102 98.7868 52.8004Z" fill="#121212"/>
<path d="M99.9331 54.8723H100.629V49.6289H99.9331V54.8723Z" fill="#121212"/>
<path d="M108.511 53.6575V54.4831C107.95 54.7837 107.303 54.9338 106.569 54.9338C105.972 54.9338 105.466 54.8159 105.05 54.5806C104.635 54.3458 104.306 54.0216 104.064 53.6085C103.821 53.196 103.7 52.7489 103.7 52.2688C103.7 51.5053 103.977 50.8637 104.532 50.3432C105.086 49.8227 105.77 49.5625 106.583 49.5625C107.145 49.5625 107.768 49.7062 108.454 49.9941V50.8012C107.829 50.4507 107.218 50.2757 106.622 50.2757C106.01 50.2757 105.502 50.4652 105.098 50.8442C104.694 51.2233 104.492 51.698 104.492 52.2688C104.492 52.8441 104.691 53.317 105.088 53.6874C105.486 54.0578 105.994 54.2433 106.614 54.2433C107.261 54.2433 107.894 54.0479 108.511 53.6575Z" fill="#121212"/>
<path d="M110.999 52.0298C110.666 52.0298 110.392 52.1372 110.178 52.3526C109.963 52.5679 109.856 52.8418 109.856 53.1746C109.856 53.5046 109.966 53.7744 110.186 53.9834C110.405 54.192 110.686 54.2967 111.03 54.2967C111.372 54.2967 111.651 54.1911 111.87 53.9798C112.088 53.7681 112.196 53.4974 112.196 53.1669C112.196 52.8395 112.083 52.5679 111.856 52.3526C111.63 52.1372 111.344 52.0298 110.999 52.0298ZM111.038 51.4141C111.574 51.4141 112.018 51.5836 112.372 51.9228C112.727 52.2619 112.904 52.6881 112.904 53.2009C112.904 53.6991 112.724 54.1122 112.364 54.4413C112.005 54.7705 111.553 54.9351 111.007 54.9351C110.479 54.9351 110.039 54.7678 109.684 54.4341C109.33 54.0999 109.153 53.6824 109.153 53.1818C109.153 52.6768 109.332 52.2556 109.69 51.9191C110.048 51.5827 110.497 51.4141 111.038 51.4141Z" fill="#121212"/>
<path d="M115.918 54.8749V54.4319C115.77 54.5911 115.601 54.7144 115.411 54.8028C115.221 54.8908 115.032 54.9352 114.843 54.9352C114.621 54.9352 114.417 54.8808 114.23 54.7715C114.042 54.6632 113.901 54.5153 113.805 54.329C113.71 54.1427 113.661 53.8325 113.661 53.3996V51.4219H114.358V53.3896C114.358 53.7523 114.41 54.0053 114.516 54.149C114.622 54.2927 114.807 54.3644 115.073 54.3644C115.404 54.3644 115.686 54.2057 115.918 53.8879V51.4219H116.614V54.8749H115.918Z" fill="#121212"/>
<path d="M118.289 51.423V51.8619C118.599 51.5241 118.953 51.3555 119.348 51.3555C119.567 51.3555 119.771 51.4112 119.96 51.5223C120.148 51.6338 120.292 51.7862 120.39 51.9802C120.488 52.1743 120.537 52.4812 120.537 52.902V54.876H119.841V52.9092C119.841 52.5565 119.786 52.3044 119.676 52.153C119.567 52.0015 119.384 51.9258 119.126 51.9258C118.797 51.9258 118.518 52.0872 118.289 52.41V54.876H117.577V51.423H118.289Z" fill="#121212"/>
<path d="M124.145 54.069V54.7445C123.796 54.8724 123.455 54.9363 123.12 54.9363C122.57 54.9363 122.13 54.7758 121.803 54.4557C121.476 54.1356 121.312 53.7063 121.312 53.1681C121.312 52.625 121.471 52.1874 121.79 51.8546C122.109 51.5219 122.528 51.3555 123.048 51.3555C123.229 51.3555 123.391 51.3722 123.536 51.4058C123.679 51.4398 123.857 51.5028 124.069 51.5958V52.3239C123.717 52.1036 123.391 51.9934 123.09 51.9934C122.776 51.9934 122.519 52.1017 122.318 52.318C122.117 52.5347 122.016 52.8104 122.016 53.1454C122.016 53.4986 122.124 53.7788 122.342 53.9865C122.56 54.1941 122.854 54.298 123.224 54.298C123.491 54.298 123.799 54.2218 124.145 54.069Z" fill="#121212"/>
<path d="M124.954 54.8705H125.649V51.4175H124.954V54.8705ZM125.298 49.9648C125.412 49.9648 125.51 50.0034 125.592 50.0809C125.674 50.1589 125.714 50.2537 125.714 50.3665C125.714 50.4763 125.674 50.5715 125.592 50.6517C125.51 50.7315 125.412 50.7719 125.298 50.7719C125.19 50.7719 125.096 50.7311 125.014 50.6499C124.933 50.5688 124.892 50.474 124.892 50.3665C124.892 50.2614 124.933 50.1684 125.014 50.0868C125.096 50.0052 125.19 49.9648 125.298 49.9648Z" fill="#121212"/>
<path d="M126.67 54.8723H127.366V49.6289H126.67V54.8723Z" fill="#121212"/>
<path d="M132.192 52.0298C131.858 52.0298 131.584 52.1372 131.37 52.3526C131.155 52.5679 131.048 52.8418 131.048 53.1746C131.048 53.5046 131.158 53.7744 131.378 53.9834C131.596 54.192 131.878 54.2967 132.222 54.2967C132.564 54.2967 132.844 54.1911 133.062 53.9798C133.28 53.7681 133.389 53.4974 133.389 53.1669C133.389 52.8395 133.275 52.5679 133.048 52.3526C132.821 52.1372 132.535 52.0298 132.192 52.0298ZM132.23 51.4141C132.765 51.4141 133.21 51.5836 133.564 51.9228C133.918 52.2619 134.096 52.6881 134.096 53.2009C134.096 53.6991 133.917 54.1122 133.556 54.4413C133.197 54.7705 132.744 54.9351 132.199 54.9351C131.672 54.9351 131.231 54.7678 130.876 54.4341C130.522 54.0999 130.345 53.6824 130.345 53.1818C130.345 52.6768 130.524 52.2556 130.882 51.9191C131.24 51.5827 131.689 51.4141 132.23 51.4141Z" fill="#121212"/>
<path d="M135.564 51.423V51.8619C135.875 51.5241 136.228 51.3555 136.623 51.3555C136.843 51.3555 137.047 51.4112 137.235 51.5223C137.424 51.6338 137.568 51.7862 137.665 51.9802C137.764 52.1743 137.812 52.4812 137.812 52.902V54.876H137.117V52.9092C137.117 52.5565 137.062 52.3044 136.952 52.153C136.843 52.0015 136.659 51.9258 136.401 51.9258C136.073 51.9258 135.794 52.0872 135.564 52.41V54.876H134.853V51.423H135.564Z" fill="#121212"/>
<path d="M142.573 50.2933H141.782V51.9337H142.619C142.931 51.9337 143.17 51.8616 143.339 51.7178C143.507 51.5737 143.591 51.3683 143.591 51.1003C143.591 50.5622 143.252 50.2933 142.573 50.2933ZM141.014 54.8762V49.625H142.707C143.217 49.625 143.624 49.7601 143.927 50.0303C144.231 50.301 144.383 50.6637 144.383 51.1189C144.383 51.4245 144.305 51.6947 144.149 51.9296C143.994 52.1649 143.781 52.3358 143.511 52.4419C143.24 52.5485 142.852 52.6015 142.348 52.6015H141.782V54.8762H141.014Z" fill="#121212"/>
<path d="M145.697 51.423V52.2151L145.735 52.1548C146.072 51.6221 146.408 51.3555 146.745 51.3555C147.007 51.3555 147.282 51.4856 147.567 51.7458L147.2 52.3461C146.958 52.1212 146.734 52.0083 146.527 52.0083C146.303 52.0083 146.108 52.1135 145.944 52.3239C145.78 52.5338 145.697 52.7832 145.697 53.0706V54.876H144.998V51.423H145.697Z" fill="#121212"/>
<path d="M149.502 52.0298C149.168 52.0298 148.894 52.1372 148.68 52.3526C148.466 52.5679 148.358 52.8418 148.358 53.1746C148.358 53.5046 148.468 53.7744 148.688 53.9834C148.907 54.192 149.189 54.2967 149.532 54.2967C149.874 54.2967 150.154 54.1911 150.372 53.9798C150.59 53.7681 150.699 53.4974 150.699 53.1669C150.699 52.8395 150.585 52.5679 150.358 52.3526C150.131 52.1372 149.846 52.0298 149.502 52.0298ZM149.54 51.4141C150.076 51.4141 150.521 51.5836 150.875 51.9228C151.229 52.2619 151.407 52.6881 151.407 53.2009C151.407 53.6991 151.227 54.1122 150.867 54.4413C150.507 54.7705 150.055 54.9351 149.51 54.9351C148.982 54.9351 148.541 54.7678 148.186 54.4341C147.832 54.0999 147.655 53.6824 147.655 53.1818C147.655 52.6768 147.834 52.2556 148.192 51.9191C148.55 51.5827 149 51.4141 149.54 51.4141Z" fill="#121212"/>
<path d="M152.844 52.3202V54.1891C153.081 54.2594 153.324 54.2943 153.574 54.2943C153.883 54.2943 154.135 54.1868 154.329 53.9715C154.524 53.7561 154.622 53.48 154.622 53.1418C154.622 52.7995 154.531 52.5202 154.348 52.3048C154.166 52.0899 153.929 51.982 153.635 51.982C153.375 51.982 153.111 52.0949 152.844 52.3202ZM152.147 49.6289H152.844V51.6669C153.145 51.4515 153.466 51.3441 153.808 51.3441C154.254 51.3441 154.618 51.5091 154.901 51.8396C155.184 52.1702 155.325 52.5941 155.325 53.1118C155.325 53.6677 155.157 54.1097 154.819 54.4389C154.481 54.7681 154.029 54.9327 153.463 54.9327C153.237 54.9327 152.997 54.9086 152.746 54.861C152.495 54.8139 152.296 54.7536 152.147 54.681V49.6289Z" fill="#121212"/>
<path d="M156.11 54.8723H156.806V49.6289H156.11V54.8723Z" fill="#121212"/>
<path d="M158.35 52.8004H160.12C160.103 52.5279 160.019 52.3176 159.871 52.1698C159.724 52.0219 159.525 51.9485 159.275 51.9485C159.025 51.9485 158.821 52.0219 158.662 52.1698C158.502 52.3176 158.398 52.5279 158.35 52.8004ZM160.809 53.2098H158.335C158.352 53.5399 158.465 53.8024 158.673 53.9978C158.881 54.1928 159.149 54.2907 159.477 54.2907C159.937 54.2907 160.36 54.1506 160.747 53.87V54.5383C160.533 54.6784 160.321 54.7786 160.111 54.8384C159.9 54.8987 159.654 54.9286 159.371 54.9286C158.983 54.9286 158.67 54.8497 158.43 54.6924C158.191 54.5346 157.999 54.3224 157.855 54.0559C157.711 53.7893 157.639 53.4814 157.639 53.1309C157.639 52.6055 157.79 52.1779 158.093 51.8492C158.398 51.52 158.791 51.3555 159.275 51.3555C159.742 51.3555 160.114 51.5155 160.392 51.8356C160.669 52.1562 160.809 52.5855 160.809 53.1232V53.2098Z" fill="#121212"/>
<path d="M164.446 52.3648V54.872H163.746V52.9506C163.746 52.5674 163.693 52.3004 163.589 52.149C163.485 51.9975 163.303 51.9218 163.043 51.9218C162.898 51.9218 162.764 51.9545 162.643 52.0193C162.522 52.0846 162.383 52.1993 162.228 52.3648V54.872H161.532V51.419H162.228V51.8729C162.582 51.5251 162.929 51.3515 163.268 51.3515C163.714 51.3515 164.059 51.5591 164.305 51.9744C164.677 51.5541 165.065 51.3438 165.471 51.3438C165.812 51.3438 166.093 51.4666 166.314 51.7119C166.535 51.9572 166.644 52.3308 166.644 52.834V54.872H165.949V52.8268C165.949 52.5389 165.889 52.3185 165.769 52.1657C165.65 52.013 165.477 51.9368 165.252 51.9368C164.965 51.9368 164.696 52.0796 164.446 52.3648Z" fill="#121212"/>
<path d="M172.759 52.2914H174.552V54.5131C173.894 54.7937 173.241 54.9338 172.595 54.9338C171.71 54.9338 171.003 54.6804 170.474 54.1735C169.945 53.667 169.68 53.0418 169.68 52.2987C169.68 51.5157 169.955 50.8637 170.503 50.3432C171.051 49.8227 171.737 49.5625 172.563 49.5625C172.864 49.5625 173.15 49.5942 173.421 49.6582C173.69 49.7221 174.032 49.8386 174.446 50.0091V50.7749C173.808 50.4117 173.176 50.2308 172.549 50.2308C171.965 50.2308 171.472 50.4258 171.072 50.8161C170.672 51.2065 170.472 51.6857 170.472 52.2534C170.472 52.8491 170.672 53.3361 171.072 53.7137C171.472 54.0919 171.987 54.2805 172.617 54.2805C172.923 54.2805 173.289 54.2115 173.715 54.0742L173.787 54.0515V52.9593H172.759V52.2914Z" fill="#121212"/>
<path d="M177.098 54.1928V53.1681L176.632 53.3445C176.395 53.437 176.227 53.5304 176.129 53.6247C176.03 53.7181 175.982 53.8351 175.982 53.9751C175.982 54.118 176.028 54.234 176.122 54.3243C176.215 54.4145 176.335 54.4594 176.483 54.4594C176.704 54.4594 176.91 54.3705 177.098 54.1928ZM177.782 52.8004V54.268C177.782 54.3859 177.824 54.4444 177.905 54.4444C177.989 54.4444 178.121 54.3832 178.299 54.2603V54.6774C178.141 54.7772 178.014 54.8452 177.919 54.8819C177.823 54.9182 177.723 54.9363 177.618 54.9363C177.32 54.9363 177.144 54.8212 177.091 54.5909C176.795 54.8157 176.48 54.9286 176.146 54.9286C175.902 54.9286 175.697 54.8493 175.534 54.6901C175.371 54.5315 175.29 54.332 175.29 54.0917C175.29 53.8736 175.369 53.6795 175.529 53.5077C175.688 53.3368 175.914 53.2008 176.207 53.1006L177.098 52.8004V52.6163C177.098 52.201 176.887 51.9934 176.464 51.9934C176.084 51.9934 175.715 52.1861 175.355 52.5715V51.8243C175.624 51.5114 176.014 51.3555 176.521 51.3555C176.901 51.3555 177.206 51.4529 177.435 51.6479C177.511 51.7105 177.581 51.7939 177.642 51.8977C177.702 52.0015 177.741 52.1054 177.758 52.2092C177.775 52.313 177.782 52.5102 177.782 52.8004Z" fill="#121212"/>
<path d="M181.799 52.3648V54.872H181.099V52.9506C181.099 52.5674 181.046 52.3004 180.942 52.149C180.838 51.9975 180.655 51.9218 180.396 51.9218C180.25 51.9218 180.117 51.9545 179.996 52.0193C179.875 52.0846 179.736 52.1993 179.581 52.3648V54.872H178.885V51.419H179.581V51.8729C179.935 51.5251 180.282 51.3515 180.621 51.3515C181.067 51.3515 181.412 51.5591 181.658 51.9744C182.03 51.5541 182.418 51.3438 182.823 51.3438C183.165 51.3438 183.446 51.4666 183.667 51.7119C183.887 51.9572 183.997 52.3308 183.997 52.834V54.872H183.302V52.8268C183.302 52.5389 183.242 52.3185 183.122 52.1657C183.002 52.013 182.83 51.9368 182.605 51.9368C182.317 51.9368 182.049 52.0796 181.799 52.3648Z" fill="#121212"/>
<path d="M185.618 52.3202V54.1891C185.855 54.2594 186.098 54.2943 186.348 54.2943C186.657 54.2943 186.909 54.1868 187.104 53.9715C187.299 53.7561 187.397 53.48 187.397 53.1418C187.397 52.7995 187.305 52.5202 187.123 52.3048C186.94 52.0899 186.703 51.982 186.41 51.982C186.15 51.982 185.885 52.0949 185.618 52.3202ZM184.922 49.6289H185.618V51.6669C185.919 51.4515 186.24 51.3441 186.582 51.3441C187.028 51.3441 187.393 51.5091 187.675 51.8396C187.958 52.1702 188.1 52.5941 188.1 53.1118C188.1 53.6677 187.931 54.1097 187.593 54.4389C187.255 54.7681 186.804 54.9327 186.238 54.9327C186.011 54.9327 185.772 54.9086 185.52 54.861C185.269 54.8139 185.07 54.7536 184.922 54.681V49.6289Z" fill="#121212"/>
<path d="M188.884 54.8723H189.58V49.6289H188.884V54.8723Z" fill="#121212"/>
<path d="M190.601 54.8705H191.297V51.4175H190.601V54.8705ZM190.945 49.9648C191.059 49.9648 191.158 50.0034 191.239 50.0809C191.321 50.1589 191.362 50.2537 191.362 50.3665C191.362 50.4763 191.321 50.5715 191.239 50.6517C191.158 50.7315 191.059 50.7719 190.945 50.7719C190.838 50.7719 190.744 50.7311 190.662 50.6499C190.58 50.5688 190.54 50.474 190.54 50.3665C190.54 50.2614 190.58 50.1684 190.662 50.0868C190.744 50.0052 190.838 49.9648 190.945 49.9648Z" fill="#121212"/>
<path d="M192.998 51.423V51.8619C193.309 51.5241 193.662 51.3555 194.057 51.3555C194.276 51.3555 194.481 51.4112 194.669 51.5223C194.858 51.6338 195.001 51.7862 195.099 51.9802C195.197 52.1743 195.246 52.4812 195.246 52.902V54.876H194.55V52.9092C194.55 52.5565 194.495 52.3044 194.386 52.153C194.276 52.0015 194.093 51.9258 193.835 51.9258C193.506 51.9258 193.228 52.0872 192.998 52.41V54.876H192.287V51.423H192.998Z" fill="#121212"/>
<path d="M197.346 52.0149C197.157 52.0149 196.997 52.0775 196.864 52.2022C196.732 52.3277 196.665 52.4778 196.665 52.6528C196.665 52.8306 196.731 52.9775 196.86 53.094C196.99 53.21 197.155 53.2685 197.353 53.2685C197.55 53.2685 197.714 53.2091 197.845 53.0903C197.976 52.9716 198.042 52.8228 198.042 52.6456C198.042 52.4651 197.975 52.315 197.843 52.1949C197.711 52.0748 197.544 52.0149 197.346 52.0149ZM197.181 55.0363C196.947 55.0363 196.755 55.0853 196.606 55.1827C196.457 55.2802 196.382 55.4053 196.382 55.5581C196.382 55.9131 196.708 56.0909 197.361 56.0909C197.67 56.0909 197.909 56.0464 198.078 55.9576C198.247 55.8692 198.332 55.7431 198.332 55.5804C198.332 55.4203 198.225 55.2897 198.011 55.1886C197.797 55.0871 197.52 55.0363 197.181 55.0363ZM196.038 52.6152C196.038 52.2475 196.175 51.9569 196.449 51.7429C196.723 51.5289 197.098 51.4219 197.571 51.4219H199.021V51.9546H198.31C198.447 52.0924 198.543 52.2176 198.596 52.33C198.65 52.4429 198.677 52.5717 198.677 52.7168C198.677 52.8972 198.624 53.074 198.52 53.2477C198.415 53.4218 198.281 53.5551 198.117 53.6476C197.952 53.7401 197.682 53.814 197.308 53.8688C197.045 53.9064 196.914 53.9953 196.914 54.1354C196.914 54.2157 196.963 54.2814 197.061 54.3326C197.159 54.3839 197.337 54.4369 197.594 54.4922C198.025 54.5847 198.302 54.6573 198.426 54.7099C198.55 54.7624 198.661 54.8373 198.761 54.9352C198.929 55.1002 199.013 55.3079 199.013 55.5581C199.013 55.8859 198.865 56.1471 198.568 56.3425C198.271 56.5379 197.873 56.6354 197.376 56.6354C196.874 56.6354 196.473 56.537 196.174 56.3407C195.874 56.1444 195.725 55.881 195.725 55.5509C195.725 55.0825 196.019 54.781 196.608 54.6459C196.373 54.4986 196.256 54.3521 196.256 54.207C196.256 54.0969 196.306 53.9967 196.407 53.9064C196.508 53.8167 196.643 53.75 196.814 53.7079C196.297 53.4825 196.038 53.1185 196.038 52.6152Z" fill="#121212"/>
<path d="M74.48 45.9236H199.685V45.7109H74.48V45.9236Z" fill="#121212"/>
<path d="M0.328394 34.3448C1.36488 41.2263 5.96581 50.0651 12.6328 53.9094C12.7127 53.9557 12.7935 53.9974 12.8739 54.0422C13.273 54.2635 13.6762 54.4734 14.0891 54.6575C16.4942 55.7279 19.2434 56.2938 22.0397 56.2938C22.0406 56.2938 22.0416 56.2938 22.0416 56.2938C22.5593 56.2938 23.0748 56.2688 23.5894 56.2317C23.7492 56.2199 23.909 56.2036 24.0683 56.1886C24.4379 56.1537 24.806 56.1088 25.1727 56.0553C25.3381 56.0313 25.5034 56.009 25.6683 55.9814C26.1501 55.8993 26.6291 55.8055 27.1039 55.6917C27.2004 55.669 27.2956 55.6404 27.3921 55.616C27.8051 55.5112 28.2143 55.3952 28.6198 55.2664C28.8 55.2097 28.9778 55.1472 29.1561 55.0859C29.4771 54.9753 29.7944 54.857 30.1095 54.7314C30.2813 54.6634 30.4536 54.5963 30.6235 54.5237C31.0628 54.336 31.497 54.137 31.9219 53.9203C31.9409 53.9112 31.9603 53.9031 31.9787 53.8935C32.0115 53.8772 32.0434 53.8582 32.0762 53.8409C32.5538 53.5934 33.0235 53.3295 33.4804 53.0466C33.4859 53.043 33.4919 53.0394 33.4974 53.0362C33.9806 52.736 34.4517 52.4168 34.9085 52.0786C35.6767 51.5092 36.3912 50.8962 37.0536 50.2469C37.0914 50.2093 37.1279 50.1708 37.1658 50.1331C37.4212 49.8783 37.666 49.6172 37.9053 49.3515C37.9852 49.2626 38.066 49.1747 38.1441 49.0844C38.3871 48.8052 38.6212 48.5204 38.8462 48.2298C38.981 48.0552 39.1085 47.8757 39.2374 47.6966C39.3205 47.5819 39.4028 47.4667 39.4831 47.3502C41.2628 44.7591 42.4051 41.7654 42.7926 38.5672L42.8277 38.2648C43.0166 36.4539 42.9446 34.6377 42.6494 32.8613C42.254 34.5266 41.5155 36.1112 40.4457 37.5253C38.3935 40.2384 35.388 42.0043 31.9824 42.4985C31.4873 42.5711 30.9783 42.6146 30.4693 42.6295C29.8517 42.6849 29.163 42.7148 28.4841 42.7148C23.9709 42.7148 19.6 41.4253 15.842 38.9852C11.848 36.4517 8.83232 32.7946 7.13532 28.5663C7.08913 28.4516 7.04063 28.3374 6.99675 28.2222C6.92516 28.0354 6.85911 27.8468 6.79306 27.6577C6.73347 27.4882 6.67528 27.3186 6.61985 27.1472C6.56627 26.9808 6.51454 26.814 6.46511 26.6462C6.40553 26.4454 6.3501 26.2427 6.29606 26.0391C6.25634 25.8891 6.21662 25.739 6.18013 25.5876C6.12285 25.3509 6.07204 25.1115 6.02308 24.8712C5.99768 24.7479 5.9695 24.625 5.94641 24.5003C5.87805 24.1335 5.81708 23.7645 5.76719 23.3909C5.69329 22.8314 5.64479 22.2715 5.61338 21.712C5.60322 21.5297 5.60322 21.3484 5.59768 21.1666C5.58521 20.7875 5.57782 20.4094 5.58474 20.0317C5.5889 19.8209 5.59906 19.6114 5.60876 19.4015C5.62493 19.0497 5.64802 18.6997 5.68036 18.3506C5.70022 18.1375 5.72147 17.9257 5.74687 17.7136C5.79029 17.3595 5.84387 17.0076 5.90299 16.6563C5.93625 16.4604 5.96581 16.2636 6.00414 16.0691C6.08359 15.6624 6.17828 15.2598 6.27989 14.859C6.31315 14.7271 6.33948 14.5938 6.37504 14.4623C6.51869 13.9346 6.68082 13.4132 6.86142 12.899C6.90622 12.7707 6.96026 12.646 7.00738 12.5191C7.1501 12.1333 7.29929 11.7506 7.4628 11.3743C7.54086 11.1947 7.62585 11.0197 7.70807 10.8425C7.85726 10.5219 8.01107 10.205 8.17504 9.89215C8.21939 9.80691 8.25634 9.71714 8.30253 9.63281C1.99444 16.1122 -1.05498 25.1605 0.328394 34.3448Z" fill="#121212"/>
<path d="M29.915 59.3502C36.7723 59.3502 43.4896 57.013 48.83 52.7706C54.3261 48.4049 59.7247 40.0485 59.7299 32.4728C59.7303 32.3531 59.7261 32.2353 59.7238 32.1165C59.7141 31.6785 59.6947 31.2414 59.6471 30.8098C59.6005 30.3863 59.5363 29.9647 59.4573 29.5449C59.4462 29.4855 59.4305 29.4265 59.419 29.3671C59.3441 28.9904 59.261 28.6145 59.1612 28.2423C59.158 28.23 59.1543 28.2182 59.1511 28.2065C57.7885 23.1661 54.1829 18.5815 49.4194 15.8167C49.3234 15.7618 49.2264 15.7074 49.1294 15.6535C48.8333 15.488 48.534 15.3293 48.23 15.1783C48.14 15.1334 48.0504 15.089 47.9598 15.045C47.5769 14.8614 47.1894 14.6864 46.7945 14.5264C44.346 13.5371 41.7705 13.0352 39.1404 13.0352C34.2116 13.0352 29.5589 14.7648 25.9072 17.7921C27.1769 17.3895 28.51 17.1796 29.8555 17.1796C33.7677 17.1796 37.4217 18.8898 39.8809 21.8722C40.1982 22.2575 40.4956 22.6647 40.7654 23.0845C41.0291 23.4427 41.309 23.8544 41.5751 24.2742L41.5908 24.2665C41.7668 24.5449 41.9349 24.8269 42.0979 25.1121C42.2116 25.3107 42.3183 25.5111 42.4254 25.7115C42.4624 25.7808 42.5012 25.8488 42.5367 25.9187C46.7571 34.0012 45.6102 43.5446 39.8841 50.2602C39.8319 50.3214 39.7779 50.3812 39.7247 50.4416C39.5626 50.6279 39.3991 50.8138 39.2291 50.9956C39.104 51.1307 38.9737 51.2626 38.8439 51.395C38.7414 51.4998 38.6397 51.6059 38.5344 51.7088C38.3464 51.8938 38.1529 52.0742 37.9575 52.2528C37.9035 52.3018 37.8513 52.3517 37.7973 52.4002C37.558 52.6151 37.3127 52.8246 37.0628 53.0299C37.0462 53.0435 37.03 53.0576 37.0134 53.0712C36.9312 53.1383 36.8522 53.2086 36.7691 53.2748C36.582 53.4235 36.3889 53.5636 36.1973 53.7064C36.1889 53.7123 36.1815 53.7186 36.1737 53.7245C36.1709 53.7264 36.1686 53.7277 36.1663 53.7295C35.6679 54.099 35.1548 54.4472 34.6282 54.7737C34.6176 54.78 34.6074 54.7864 34.5968 54.7927C34.0915 55.1047 33.5765 55.3989 33.049 55.6687C33.0162 55.6854 32.9843 55.704 32.9515 55.7213C32.9492 55.7222 32.9469 55.7235 32.9446 55.7249C32.4545 55.9756 31.9534 56.2041 31.4467 56.4204C31.2822 56.4907 31.116 56.555 30.9506 56.6212C30.5765 56.7713 30.1991 56.9114 29.818 57.0424C29.6462 57.1014 29.4758 57.1617 29.303 57.2165C28.7788 57.3834 28.2504 57.538 27.716 57.6686C27.6578 57.6831 27.5982 57.6931 27.5395 57.7071C27.0434 57.8245 26.5437 57.9234 26.0411 58.0091C25.8628 58.0394 25.6836 58.0648 25.5044 58.0911C25.0947 58.1514 24.6841 58.2008 24.2716 58.2398C24.1063 58.2553 23.9418 58.2743 23.776 58.2861C23.2361 58.326 22.6956 58.3527 22.1543 58.3555C24.6772 59.0129 27.2882 59.3502 29.9127 59.3502C29.9137 59.3502 29.9141 59.3502 29.915 59.3502Z" fill="#121212"/>
<path d="M54.889 17.3024C56.4128 18.7352 57.7315 20.3519 58.7962 22.1056C56.3223 13.2061 49.7061 5.83534 40.6484 2.3846C37.3264 1.11873 33.3458 0.421875 29.4396 0.421875C23.9994 0.421875 19.1791 1.72129 15.8645 4.08118C15.8631 4.08254 15.8613 4.08344 15.8594 4.0848C11.5417 7.16241 8.65206 12.2358 7.88485 17.6534C7.62896 19.4597 7.6091 21.3041 7.85067 23.1253C7.90702 23.5506 7.98139 23.9704 8.06499 24.3866C8.08993 24.5109 8.11903 24.6337 8.14628 24.7575C8.21326 25.0604 8.28624 25.361 8.36753 25.6584C8.40032 25.7804 8.43358 25.9023 8.46915 26.0234C8.57215 26.3748 8.68393 26.7221 8.80587 27.0648C8.82296 27.1133 8.83774 27.1632 8.85529 27.2113C9.16245 28.0523 9.52596 28.8666 9.94074 29.6496C9.95275 29.6718 9.96476 29.694 9.97631 29.7162C11.6816 32.9054 14.2442 35.5804 17.3509 37.4715C17.3578 37.476 17.3643 37.4792 17.3708 37.4837C18.5375 38.1919 19.78 38.7904 21.0825 39.2641C17.2909 35.8415 15.8068 30.3546 17.7809 25.3632C17.9624 24.904 18.1749 24.4483 18.4128 24.0072C22.1033 16.0815 30.2156 10.9246 39.0525 10.9246C41.8031 10.9246 44.5066 11.4234 47.0881 12.4068C47.683 12.6339 48.2664 12.896 48.8419 13.173C48.9985 13.2473 49.1527 13.3258 49.3075 13.4033C49.4317 13.4668 49.5606 13.5235 49.6835 13.5892C49.7731 13.6359 49.8571 13.6903 49.9458 13.7384C50.2539 13.9048 50.5564 14.0775 50.8557 14.2566C50.9952 14.3405 51.1338 14.4243 51.271 14.5109C51.6031 14.719 51.9278 14.9353 52.2474 15.1588C52.3444 15.2268 52.4419 15.2939 52.5375 15.3633C52.8936 15.6204 53.2405 15.887 53.5795 16.1617C53.635 16.2066 53.6904 16.2501 53.7449 16.295C54.1237 16.6074 54.4909 16.9307 54.8474 17.2644C54.8613 17.2771 54.8756 17.2893 54.889 17.3024Z" fill="#121212"/>
</svg>
